<?xml version="1.0" encoding="UTF-8" standalone="no"?><!DOCTYPE svg PUBLIC "-//W3C//DTD SVG 1.1//EN" "http://www.w3.org/Graphics/SVG/1.1/DTD/svg11.dtd"><svg width="100%" height="100%" viewBox="0 0 2084 2084" version="1.1" xmlns="http://www.w3.org/2000/svg" xmlns:xlink="http://www.w3.org/1999/xlink" xml:space="preserve" xmlns:serif="http://www.serif.com/" style="fill-rule:evenodd;clip-rule:evenodd;stroke-linejoin:round;stroke-miterlimit:2;"><circle cx="1041.67" cy="1041.67" r="708.75" style="fill:#9fcaaa;"/><path d="M971.25,1357.92l-328.75,-677.5l47.5,-22.917l290,597.083l295,-412.916l334.167,233.75l-30,43.333l-291.667,-203.75l-316.25,442.917Z" style="fill-rule:nonzero;"/><path d="M1723.75,1609.17c-6.667,-0.834 -12.917,-0.834 -20.833,-0.834l-1163.33,0l0,-1163.33c0,-5.833 0,-12.5 -1.25,-19.583c-2.916,-17.917 -14.583,-30.417 -32.083,-35.417c-11.25,-2.917 -27.917,-3.333 -43.75,12.5c-12.083,12.083 -12.083,26.667 -12.083,37.5l-0,14.583l-62.084,0c-13.333,0 -24.583,10.834 -24.583,24.584c0,13.333 10.833,24.583 24.583,24.583l62.084,0l-0,150.833l-62.084,0c-13.333,0 -24.583,10.834 -24.583,24.584c0,13.75 10.833,24.583 24.583,24.583l62.084,0l-0,172.917l-62.084,-0c-13.333,-0 -24.583,10.833 -24.583,24.583c0,13.75 10.833,24.583 24.583,24.583l62.084,0l-0,173.334l-62.084,-0c-13.333,-0 -24.583,10.833 -24.583,24.583c0,13.333 10.833,24.583 24.583,24.583l62.084,0l-0,172.917l-62.084,0c-13.333,0 -24.583,10.833 -24.583,24.583c0,13.75 10.833,24.584 24.583,24.584l62.084,-0l-0,173.333l-62.084,-0c-13.333,-0 -24.583,10.833 -24.583,24.583c0,13.75 10.833,24.584 24.583,24.584l62.084,-0l-0,54.583c-0,4.167 -0,8.333 0.416,12.083c2.084,22.084 18.75,37.5 40.834,39.167c4.166,0.417 7.916,0.417 13.75,0.417l56.666,-0l0,50.833c0,13.333 10.834,24.583 24.584,24.583c13.333,0 24.583,-10.833 24.583,-24.583l0,-52.5l173.333,-0l0,52.5c0,13.333 10.834,24.583 24.584,24.583c13.75,0 24.583,-10.833 24.583,-24.583l0,-52.5l173.333,-0l0,52.5c0,13.333 10.834,24.583 24.584,24.583c13.333,0 24.583,-10.833 24.583,-24.583l0,-52.5l173.333,-0l0,52.5c0,13.333 10.834,24.583 24.584,24.583c13.75,0 24.583,-10.833 24.583,-24.583l0,-52.5l173.333,-0l0,52.5c0,13.333 10.834,24.583 24.584,24.583c13.333,0 24.583,-10.833 24.583,-24.583l-0,-52.5l167.917,-0l-0,52.5c-0,13.333 10.833,24.583 24.583,24.583c13.75,0 24.583,-10.833 24.583,-24.583l0,-52.917l4.584,0c22.916,-1.666 40.416,-19.166 41.666,-42.083c-2.083,-22.5 -18.333,-42.5 -40.833,-45.833Z" style="fill-rule:nonzero;"/><path d="M662.083,603.333c-33.333,0 -59.583,25.834 -59.583,59.584c0,32.916 25.833,58.75 59.167,58.75c34.166,-0 59.583,-25.417 59.583,-60.417c0,-31.25 -26.667,-57.5 -59.167,-57.917Z" style="fill:#fff;fill-rule:nonzero;"/><path d="M661.667,748.333c-23.334,0 -45.417,-9.166 -61.25,-25c-15.834,-15.833 -24.584,-37.5 -24.584,-60.416c0,-23.334 9.167,-45.417 25.417,-61.25c16.25,-15.834 37.5,-25.417 60.833,-24.584c23.334,0 45,9.167 61.25,25.834c15.834,15.833 24.167,36.666 24.167,58.75c0,49.583 -37.083,86.666 -85.833,86.666Zm-0,-118.333c-8.75,0 -17.084,3.333 -23.334,9.167c-6.25,6.25 -9.583,14.583 -9.583,24.166c-0,8.75 3.333,16.667 9.167,22.917c6.25,6.25 14.583,9.583 23.75,9.583c19.583,0 32.916,-13.75 32.916,-34.166c0,-7.917 -2.916,-15.417 -8.75,-21.25c-6.25,-6.667 -15,-10.417 -24.166,-10.417Z" style="fill-rule:nonzero;"/><path d="M971.25,1247.08c-33.333,0 -59.583,25.834 -59.583,59.584c-0,32.916 25.833,58.75 59.166,58.75c34.167,-0 59.584,-25.417 59.584,-60.417c0.416,-31.667 -26.667,-57.917 -59.167,-57.917Z" style="fill:#fff;fill-rule:nonzero;"/><path d="M971.25,1392.08c-0.417,0 -0.417,0 0,0c-23.75,0 -45.417,-9.166 -61.25,-25c-15.833,-15.833 -24.583,-37.5 -24.583,-60.416c-0,-23.334 9.166,-45.417 25.416,-61.25c15.834,-15.834 37.5,-24.584 60.417,-24.584l0.417,0c23.333,0 45,9.167 61.25,25.834c15.833,15.833 24.166,36.666 24.166,58.75c-0.416,49.166 -37.5,86.666 -85.833,86.666Zm-0.417,-118.75c-8.75,0 -17.083,3.334 -23.333,9.167c-6.25,6.25 -9.583,14.583 -9.583,24.167c-0,8.75 3.333,16.666 9.166,22.916c6.25,6.25 14.584,9.584 23.75,9.584c19.584,-0 32.917,-13.75 32.917,-34.167c-0,-7.917 -2.917,-15.417 -8.75,-21.25c-6.25,-6.667 -14.583,-10 -24.167,-10.417Z" style="fill-rule:nonzero;"/><path d="M1281.25,819.583c-33.333,0 -59.583,25.834 -59.583,59.584c-0,32.916 25.833,58.75 59.166,58.75c34.167,-0 59.584,-25.417 59.584,-60.417c0.416,-31.667 -26.25,-57.917 -59.167,-57.917Z" style="fill:#fff;fill-rule:nonzero;"/><path d="M1281.25,964.583c-0.417,0 -0.417,0 0,0c-23.75,0 -45.417,-9.166 -61.25,-25c-15.833,-15.833 -24.583,-37.5 -24.583,-60.416c-0,-23.334 8.75,-45 25,-61.25c15.833,-15.834 37.5,-25 60.833,-25l0.417,-0c23.333,-0 45,9.166 61.25,25.833c15.833,15.833 24.166,36.667 24.166,58.75c-0.416,49.583 -37.5,87.083 -85.833,87.083Zm-0.417,-118.75c-9.166,0 -17.083,3.334 -23.333,9.167c-6.25,6.25 -9.583,14.583 -9.583,23.75c-0,8.75 3.333,16.667 9.166,22.917c6.25,6.25 14.584,9.583 23.75,9.583c19.584,0 32.917,-13.75 32.917,-34.167c0,-7.916 -2.917,-15.416 -8.75,-21.25c-6.25,-6.25 -14.583,-10 -24.167,-10c0.417,0 0.417,0 0,0Z" style="fill-rule:nonzero;"/><path d="M1594.17,1038.33c-33.334,0 -59.584,25.834 -59.584,59.584c0,32.916 25.834,58.75 59.167,58.75c34.167,-0 59.583,-25.417 59.583,-60.417c0.417,-31.667 -26.25,-57.917 -59.166,-57.917Z" style="fill:#fff;fill-rule:nonzero;"/><path d="M1594.17,1182.92c-0,-0 -0.417,-0 -0,-0c-23.75,-0 -45.417,-9.167 -61.25,-25c-15.834,-15.834 -24.584,-37.5 -24.584,-60.417c0,-23.333 9.167,-45.417 25.417,-61.25c15.833,-15.833 37.5,-24.583 60.417,-24.583l0.416,-0c23.334,-0 45,9.166 61.667,25.833c15.833,15.833 24.167,36.667 24.167,58.75c-0.834,49.583 -37.5,86.667 -86.25,86.667Zm-0.417,-118.334c-8.75,0 -17.083,3.334 -23.333,9.167c-6.25,6.25 -9.584,14.583 -9.584,24.167c0,8.75 3.334,16.666 9.167,22.916c6.25,6.25 14.583,9.584 23.75,9.584c19.583,-0 32.917,-13.75 32.917,-34.167c-0,-7.917 -2.917,-15.417 -8.75,-21.25c-6.25,-6.667 -14.584,-10.417 -24.167,-10.417c0.417,0 0.417,0 0,0Z" style="fill-rule:nonzero;"/></svg>