<?xml version="1.0" encoding="UTF-8" standalone="no"?><!DOCTYPE svg PUBLIC "-//W3C//DTD SVG 1.1//EN" "http://www.w3.org/Graphics/SVG/1.1/DTD/svg11.dtd"><svg width="100%" height="100%" viewBox="0 0 8684 8684" version="1.1" xmlns="http://www.w3.org/2000/svg" xmlns:xlink="http://www.w3.org/1999/xlink" xml:space="preserve" xmlns:serif="http://www.serif.com/" style="fill-rule:evenodd;clip-rule:evenodd;stroke-miterlimit:10;"><circle cx="4340.29" cy="4411.29" r="2952.95" style="fill:#ce2256;"/><path d="M4340.46,5450.88l1210.77,1210.42c286.108,286.808 752.775,286.808 1038.89,-0c286.458,-286.459 286.458,-752.604 -0,-1038.89l-1210.42,-1210.76l1210.42,-1210.77c286.458,-286.458 286.458,-752.775 -0,-1039.58c-286.113,-286.109 -752.78,-286.459 -1038.89,0.35l-1210.77,1211.11l-1211.11,-1211.11c-286.112,-286.809 -752.779,-286.809 -1038.89,-0c-286.458,286.458 -286.458,752.775 0,1039.58l1210.42,1210.42l-1210.42,1210.76c-286.458,286.459 -286.458,752.604 0,1038.89c286.113,286.808 752.78,286.808 1038.89,-0l1211.11,-1210.42Z" style="fill:#fff;fill-rule:nonzero;stroke:#000;stroke-width:220.54px;"/></svg>