<?xml version="1.0" encoding="UTF-8" standalone="no"?><!DOCTYPE svg PUBLIC "-//W3C//DTD SVG 1.1//EN" "http://www.w3.org/Graphics/SVG/1.1/DTD/svg11.dtd"><svg width="100%" height="100%" viewBox="0 0 7200 4961" version="1.1" xmlns="http://www.w3.org/2000/svg" xmlns:xlink="http://www.w3.org/1999/xlink" xml:space="preserve" xmlns:serif="http://www.serif.com/" style="fill-rule:evenodd;clip-rule:evenodd;stroke-linejoin:round;stroke-miterlimit:2;"><rect id="dot" x="0" y="0" width="7200" height="4960.63" style="fill:none;"/><g><path d="M6716.69,671.671c-0,-6.899 -5.601,-12.5 -12.5,-12.5l-6306,-0c-6.899,-0 -12.5,5.601 -12.5,12.5c-0,6.899 5.601,12.5 12.5,12.5l6306,-0c6.899,-0 12.5,-5.601 12.5,-12.5Z" style="fill:#acafb2;"/><path d="M6716.69,1580.99c-0,-6.899 -5.601,-12.5 -12.5,-12.5l-6306,-0c-6.899,-0 -12.5,5.601 -12.5,12.5c-0,6.899 5.601,12.5 12.5,12.5l6306,-0c6.899,-0 12.5,-5.601 12.5,-12.5Z" style="fill:#acafb2;"/><path d="M6716.69,2480.32c-0,-6.899 -5.601,-12.5 -12.5,-12.5l-6306,-0c-6.899,-0 -12.5,5.601 -12.5,12.5c-0,6.899 5.601,12.5 12.5,12.5l6306,-0c6.899,-0 12.5,-5.601 12.5,-12.5Z" style="fill:#acafb2;"/><path d="M6716.69,3359.64c-0,-6.899 -5.601,-12.5 -12.5,-12.5l-6306,0c-6.899,0 -12.5,5.601 -12.5,12.5c-0,6.899 5.601,12.5 12.5,12.5l6306,0c6.899,0 12.5,-5.601 12.5,-12.5Z" style="fill:#acafb2;"/><path d="M6716.69,4278.96c-0,-6.899 -5.601,-12.5 -12.5,-12.5l-6306,0c-6.899,0 -12.5,5.601 -12.5,12.5c-0,6.899 5.601,12.5 12.5,12.5l6306,0c6.899,0 12.5,-5.601 12.5,-12.5Z" style="fill:#acafb2;"/></g><path d="M2498.68,4278.96c0,-96.585 78.415,-175 175,-175c96.585,0 175,78.415 175,175c0,96.585 -78.415,175 -175,175c-96.585,0 -175,-78.415 -175,-175Z" style="fill:#36bcee;"/><path d="M5113.06,4278.96c-0,-96.585 78.415,-175 175,-175c96.585,0 175,78.415 175,175c-0,96.585 -78.415,175 -175,175c-96.585,0 -175,-78.415 -175,-175Z" style="fill:#ef7835;"/><path d="M3844.14,4278.96c-0,-96.585 78.415,-175 175,-175c96.585,0 175,78.415 175,175c-0,96.585 -78.415,175 -175,175c-96.585,0 -175,-78.415 -175,-175Z" style="fill:#fddd3e;"/><path d="M2872.8,4278.96c-0,-96.585 78.414,-175 175,-175c96.585,0 175,78.415 175,175c-0,96.585 -78.415,175 -175,175c-96.586,0 -175,-78.415 -175,-175Z" style="fill:#2eb5b2;"/><path d="M2108.6,4278.96c0,-96.585 78.415,-175 175,-175c96.585,0 175,78.415 175,175c0,96.585 -78.415,175 -175,175c-96.585,0 -175,-78.415 -175,-175Z" style="fill:#7b67a8;"/><path d="M2498.68,4278.96c0,-96.585 78.415,-175 175,-175c96.585,0 175,78.415 175,175c0,96.585 -78.415,175 -175,175c-96.585,0 -175,-78.415 -175,-175Z" style="fill:#36bcee;"/><path d="M5880.96,4278.96c0,-96.585 78.415,-175 175,-175c96.585,0 175,78.415 175,175c0,96.585 -78.415,175 -175,175c-96.585,0 -175,-78.415 -175,-175Z" style="fill:#ce2256;"/><path d="M5113.06,4278.96c-0,-96.585 78.415,-175 175,-175c96.585,0 175,78.415 175,175c-0,96.585 -78.415,175 -175,175c-96.585,0 -175,-78.415 -175,-175Z" style="fill:#ef7835;"/><path d="M3844.14,4278.96c-0,-96.585 78.415,-175 175,-175c96.585,0 175,78.415 175,175c-0,96.585 -78.415,175 -175,175c-96.585,0 -175,-78.415 -175,-175Z" style="fill:#fddd3e;"/><path d="M2872.8,4278.96c-0,-96.585 78.414,-175 175,-175c96.585,0 175,78.415 175,175c-0,96.585 -78.415,175 -175,175c-96.586,0 -175,-78.415 -175,-175Z" style="fill:#2eb5b2;"/><path d="M2108.6,4278.96c0,-96.585 78.415,-175 175,-175c96.585,0 175,78.415 175,175c0,96.585 -78.415,175 -175,175c-96.585,0 -175,-78.415 -175,-175Z" style="fill:#7b67a8;"/><path d="M1250.94,4278.96c-0,-96.585 78.415,-175 175,-175c96.585,0 175,78.415 175,175c-0,96.585 -78.415,175 -175,175c-96.585,0 -175,-78.415 -175,-175Z" style="fill:#14022e;"/><path d="M2981.74,3379.64c-0,-96.585 78.415,-175 175,-175c96.585,0 175,78.415 175,175c-0,96.585 -78.415,175 -175,175c-96.585,0 -175,-78.415 -175,-175Z" style="fill:#36bcee;"/><path d="M5247.87,3379.64c-0,-96.585 78.414,-175 175,-175c96.585,0 175,78.415 175,175c-0,96.585 -78.415,175 -175,175c-96.586,0 -175,-78.415 -175,-175Z" style="fill:#ef7835;"/><path d="M4327.2,3379.64c0,-96.585 78.415,-175 175,-175c96.586,0 175,78.415 175,175c0,96.585 -78.414,175 -175,175c-96.585,0 -175,-78.415 -175,-175Z" style="fill:#fddd3e;"/><path d="M3355.86,3379.64c0,-96.585 78.415,-175 175,-175c96.585,0 175,78.415 175,175c0,96.585 -78.415,175 -175,175c-96.585,0 -175,-78.415 -175,-175Z" style="fill:#2eb5b2;"/><path d="M2591.67,3379.64c-0,-96.585 78.415,-175 175,-175c96.585,0 175,78.415 175,175c-0,96.585 -78.415,175 -175,175c-96.585,0 -175,-78.415 -175,-175Z" style="fill:#7b67a8;"/><path d="M2981.74,3379.64c-0,-96.585 78.415,-175 175,-175c96.585,0 175,78.415 175,175c-0,96.585 -78.415,175 -175,175c-96.585,0 -175,-78.415 -175,-175Z" style="fill:#36bcee;"/><path d="M6080.93,3379.64c0,-96.585 78.415,-175 175,-175c96.585,0 175,78.415 175,175c0,96.585 -78.415,175 -175,175c-96.585,0 -175,-78.415 -175,-175Z" style="fill:#ce2256;"/><path d="M4327.2,3379.64c0,-96.585 78.415,-175 175,-175c96.586,0 175,78.415 175,175c0,96.585 -78.414,175 -175,175c-96.585,0 -175,-78.415 -175,-175Z" style="fill:#fddd3e;"/><path d="M3355.86,3379.64c0,-96.585 78.415,-175 175,-175c96.585,0 175,78.415 175,175c0,96.585 -78.415,175 -175,175c-96.585,0 -175,-78.415 -175,-175Z" style="fill:#2eb5b2;"/><path d="M2591.67,3379.64c-0,-96.585 78.415,-175 175,-175c96.585,0 175,78.415 175,175c-0,96.585 -78.415,175 -175,175c-96.585,0 -175,-78.415 -175,-175Z" style="fill:#7b67a8;"/><path d="M786.195,3359.64c0,-96.585 78.415,-175 175,-175c96.585,0 175,78.415 175,175c0,96.585 -78.415,175 -175,175c-96.585,0 -175,-78.415 -175,-175Z" style="fill:#14022e;"/><path d="M2493.47,2480.32c0,-96.585 78.415,-175 175,-175c96.585,-0 175,78.415 175,175c0,96.585 -78.415,175 -175,175c-96.585,-0 -175,-78.415 -175,-175Z" style="fill:#36bcee;"/><path d="M5905.93,2480.32c0,-96.585 78.415,-175 175,-175c96.585,-0 175,78.415 175,175c0,96.585 -78.415,175 -175,175c-96.585,-0 -175,-78.415 -175,-175Z" style="fill:#ce2256;"/><path d="M5107.84,2480.32c-0,-96.585 78.415,-175 175,-175c96.585,-0 175,78.415 175,175c-0,96.585 -78.415,175 -175,175c-96.585,-0 -175,-78.415 -175,-175Z" style="fill:#ef7835;"/><path d="M3838.92,2480.32c-0,-96.585 78.415,-175 175,-175c96.585,-0 175,78.415 175,175c-0,96.585 -78.415,175 -175,175c-96.585,-0 -175,-78.415 -175,-175Z" style="fill:#fddd3e;"/><path d="M2867.58,2480.32c-0,-96.585 78.414,-175 175,-175c96.585,-0 175,78.415 175,175c-0,96.585 -78.415,175 -175,175c-96.586,-0 -175,-78.415 -175,-175Z" style="fill:#2eb5b2;"/><path d="M2103.39,2480.32c0,-96.585 78.415,-175 175,-175c96.585,-0 175,78.415 175,175c0,96.585 -78.415,175 -175,175c-96.585,-0 -175,-78.415 -175,-175Z" style="fill:#7b67a8;"/><path d="M1501.98,2480.32c0,-96.585 78.415,-175 175,-175c96.585,-0 175,78.415 175,175c0,96.585 -78.415,175 -175,175c-96.585,-0 -175,-78.415 -175,-175Z" style="fill:#14022e;"/><path d="M3349.14,1580.99c0,-96.585 78.415,-175 175,-175c96.585,-0 175,78.415 175,175c0,96.585 -78.415,175 -175,175c-96.585,-0 -175,-78.415 -175,-175Z" style="fill:#36bcee;"/><path d="M6020.67,1580.99c0,-96.585 78.415,-175 175,-175c96.585,-0 175,78.415 175,175c0,96.585 -78.415,175 -175,175c-96.585,-0 -175,-78.415 -175,-175Z" style="fill:#ce2256;"/><path d="M5329.4,1580.99c-0,-96.585 78.415,-175 175,-175c96.585,-0 175,78.415 175,175c-0,96.585 -78.415,175 -175,175c-96.585,-0 -175,-78.415 -175,-175Z" style="fill:#ef7835;"/><path d="M3874.14,1580.99c0,-96.585 78.415,-175 175,-175c96.585,-0 175,78.415 175,175c0,96.585 -78.415,175 -175,175c-96.585,-0 -175,-78.415 -175,-175Z" style="fill:#fddd3e;"/><path d="M3600,1580.99c0,-96.585 78.415,-175 175,-175c96.585,-0 175,78.415 175,175c0,96.585 -78.415,175 -175,175c-96.585,-0 -175,-78.415 -175,-175Z" style="fill:#2eb5b2;"/><path d="M2324.95,1580.99c-0,-96.585 78.415,-175 175,-175c96.585,-0 175,78.415 175,175c-0,96.585 -78.415,175 -175,175c-96.585,-0 -175,-78.415 -175,-175Z" style="fill:#7b67a8;"/><path d="M671.451,1580.99c0,-96.585 78.415,-175 175,-175c96.585,-0 175,78.415 175,175c0,96.585 -78.415,175 -175,175c-96.585,-0 -175,-78.415 -175,-175Z" style="fill:#14022e;"/><path d="M2715.02,671.671c-0,-96.585 78.415,-175 175,-175c96.585,-0 175,78.415 175,175c-0,96.585 -78.415,175 -175,175c-96.585,-0 -175,-78.415 -175,-175Z" style="fill:#36bcee;"/><path d="M5928.95,671.671c0,-96.585 78.415,-175 175,-175c96.585,-0 175,78.415 175,175c0,96.585 -78.415,175 -175,175c-96.585,-0 -175,-78.415 -175,-175Z" style="fill:#ce2256;"/><path d="M4897.87,671.671c-0,-96.585 78.414,-175 175,-175c96.585,-0 175,78.415 175,175c-0,96.585 -78.415,175 -175,175c-96.586,-0 -175,-78.415 -175,-175Z" style="fill:#ef7835;"/><path d="M4060.48,671.671c0,-96.585 78.415,-175 175,-175c96.586,-0 175,78.415 175,175c0,96.585 -78.414,175 -175,175c-96.585,-0 -175,-78.415 -175,-175Z" style="fill:#fddd3e;"/><path d="M3524.14,671.671c0,-96.585 78.415,-175 175,-175c96.585,-0 175,78.415 175,175c0,96.585 -78.415,175 -175,175c-96.585,-0 -175,-78.415 -175,-175Z" style="fill:#2eb5b2;"/><path d="M1960.95,671.671c-0,-96.585 78.415,-175 175,-175c96.585,-0 175,78.415 175,175c-0,96.585 -78.415,175 -175,175c-96.585,-0 -175,-78.415 -175,-175Z" style="fill:#7b67a8;"/><path d="M793.537,671.671c-0,-96.585 78.415,-175 175,-175c96.585,-0 175,78.415 175,175c-0,96.585 -78.415,175 -175,175c-96.585,-0 -175,-78.415 -175,-175Z" style="fill:#14022e;"/></svg>