<?xml version="1.0" encoding="UTF-8" standalone="no"?><!DOCTYPE svg PUBLIC "-//W3C//DTD SVG 1.1//EN" "http://www.w3.org/Graphics/SVG/1.1/DTD/svg11.dtd"><svg width="100%" height="100%" viewBox="0 0 7200 4961" version="1.1" xmlns="http://www.w3.org/2000/svg" xmlns:xlink="http://www.w3.org/1999/xlink" xml:space="preserve" xmlns:serif="http://www.serif.com/" style="fill-rule:evenodd;clip-rule:evenodd;stroke-linecap:round;stroke-linejoin:bevel;stroke-miterlimit:1.5;"><rect id="line" x="0" y="0" width="7200" height="4960.63" style="fill:none;"/><g><path d="M6457.81,2051.86l-1469.86,37.495l-613.771,-246.116l-814.151,-153.962l-783.028,235.7l-821.599,59.868l-203.649,-156.882l-496.51,-336.66l-469.92,-310.84" style="fill:none;stroke:#36bcee;stroke-width:62.5px;"/><path d="M775.674,2909.78l1204.64,140.815l869.419,-172.666l708.083,-26.822l858.663,243.074l550.333,244.75l469.666,-254.808l521.651,-293.366l492.97,-269.896" style="fill:none;stroke:#fddd3e;stroke-width:62.5px;"/><path d="M807.012,1984.85l1171.4,298.131l886.761,-56.392l705.061,66.741l813.476,353.785l635.68,282.779l375.659,-158.345l560.647,-221.707l528.715,-202.252" style="fill:none;stroke:#2eb5b2;stroke-width:62.5px;"/><path d="M700.588,4006.33l1261.94,-28.905l868.664,-292.317l724.94,-125.449l921.414,120.62l604.209,165.345l444.459,-317.771l492.066,-363.19l466.137,-335.958" style="fill:none;stroke:#ef7835;stroke-width:62.5px;"/><path d="M807.012,1804.89l1156.05,-97.032l851.418,-335.292l717.284,-161.478l927.606,74.432l496.603,162.366l45.122,-12.417l1456.71,0l-0,-19.725" style="fill:none;stroke:#7b67a8;stroke-width:62.5px;"/><path d="M775.674,704.819l1204.64,140.815l869.419,-172.666l708.083,-26.822l858.663,243.074l550.333,244.751l1491,-323.323l-41.432,-0" style="fill:none;stroke:#14022e;stroke-width:62.5px;"/><path d="M775.674,4012.25l1204.64,140.815l869.419,-172.666l708.083,-26.822l858.663,243.074l590.706,124.753l-6.09,-0l1450,-698.073" style="fill:none;stroke:#ce2256;stroke-width:62.5px;"/><g><circle cx="775.674" cy="1180.46" r="85.712" style="fill:#fff;"/><path d="M775.674,1032.25c-81.801,0 -148.213,66.412 -148.213,148.213c0,81.8 66.412,148.212 148.213,148.212c81.8,0 148.212,-66.412 148.212,-148.212c0,-81.801 -66.412,-148.213 -148.212,-148.213Zm-0,62.5c47.306,0 85.712,38.407 85.712,85.713c0,47.306 -38.406,85.712 -85.712,85.712c-47.306,0 -85.713,-38.406 -85.713,-85.712c0,-47.306 38.407,-85.713 85.713,-85.713Z" style="fill:#36bcee;"/><circle cx="1973.08" cy="1984.85" r="85.712" style="fill:#fff;"/><path d="M1973.08,1836.63c-81.8,0 -148.212,66.412 -148.212,148.213c-0,81.8 66.412,148.212 148.212,148.212c81.801,0 148.213,-66.412 148.213,-148.212c-0,-81.801 -66.412,-148.213 -148.213,-148.213Zm0,62.5c47.306,0 85.713,38.407 85.713,85.713c-0,47.306 -38.407,85.712 -85.713,85.712c-47.306,0 -85.712,-38.406 -85.712,-85.712c-0,-47.306 38.406,-85.713 85.712,-85.713Z" style="fill:#36bcee;"/><circle cx="2846.97" cy="1899.13" r="85.712" style="fill:#fff;"/><path d="M2846.97,1750.92c-81.801,-0 -148.213,66.412 -148.213,148.212c0,81.801 66.412,148.213 148.213,148.213c81.801,-0 148.212,-66.412 148.212,-148.213c0,-81.8 -66.411,-148.212 -148.212,-148.212Zm-0,62.5c47.306,-0 85.712,38.406 85.712,85.712c0,47.306 -38.406,85.713 -85.712,85.713c-47.306,-0 -85.713,-38.407 -85.713,-85.713c0,-47.306 38.407,-85.712 85.713,-85.712Z" style="fill:#36bcee;"/><circle cx="3611.69" cy="1686.34" r="85.712" style="fill:#fff;"/><path d="M3611.69,1538.13c-81.801,-0 -148.213,66.411 -148.213,148.212c0,81.801 66.412,148.213 148.213,148.213c81.8,-0 148.212,-66.412 148.212,-148.213c0,-81.801 -66.412,-148.212 -148.212,-148.212Zm-0,62.5c47.306,-0 85.712,38.406 85.712,85.712c0,47.306 -38.406,85.713 -85.712,85.713c-47.306,-0 -85.713,-38.407 -85.713,-85.713c0,-47.306 38.407,-85.712 85.713,-85.712Z" style="fill:#36bcee;"/><circle cx="4415.68" cy="1857.76" r="85.712" style="fill:#fff;"/><path d="M4415.68,1709.55c-81.801,-0 -148.213,66.411 -148.213,148.212c0,81.801 66.412,148.213 148.213,148.213c81.801,-0 148.212,-66.412 148.212,-148.213c0,-81.801 -66.411,-148.212 -148.212,-148.212Zm-0,62.5c47.306,-0 85.712,38.406 85.712,85.712c0,47.306 -38.406,85.713 -85.712,85.713c-47.306,-0 -85.713,-38.407 -85.713,-85.713c0,-47.306 38.407,-85.712 85.713,-85.712Z" style="fill:#36bcee;"/><circle cx="5001.09" cy="2089.36" r="85.712" style="fill:#fff;"/><path d="M5001.09,1941.14c-81.801,0 -148.212,66.412 -148.212,148.213c-0,81.801 66.411,148.212 148.212,148.212c81.801,0 148.213,-66.411 148.213,-148.212c-0,-81.801 -66.412,-148.213 -148.213,-148.213Zm0,62.5c47.306,0 85.713,38.407 85.713,85.713c-0,47.306 -38.407,85.712 -85.713,85.712c-47.306,0 -85.712,-38.406 -85.712,-85.712c-0,-47.306 38.406,-85.713 85.712,-85.713Z" style="fill:#36bcee;"/><circle cx="6457.81" cy="2029.19" r="85.712" style="fill:#fff;"/><path d="M6457.81,1880.98c-81.801,-0 -148.213,66.411 -148.213,148.212c0,81.801 66.412,148.213 148.213,148.213c81.8,-0 148.212,-66.412 148.212,-148.213c0,-81.801 -66.412,-148.212 -148.212,-148.212Zm-0,62.5c47.306,-0 85.712,38.406 85.712,85.712c0,47.306 -38.406,85.713 -85.712,85.713c-47.306,-0 -85.713,-38.407 -85.713,-85.713c0,-47.306 38.407,-85.712 85.713,-85.712Z" style="fill:#36bcee;"/></g><g><circle cx="775.674" cy="3997.76" r="85.712" style="fill:#fff;"/><path d="M775.674,3849.55c-81.801,0 -148.213,66.412 -148.213,148.213c0,81.8 66.412,148.212 148.213,148.212c81.8,0 148.212,-66.412 148.212,-148.212c0,-81.801 -66.412,-148.213 -148.212,-148.213Zm-0,62.5c47.306,0 85.712,38.407 85.712,85.713c0,47.306 -38.406,85.712 -85.712,85.712c-47.306,0 -85.713,-38.406 -85.713,-85.712c0,-47.306 38.407,-85.713 85.713,-85.713Z" style="fill:#ce2256;"/><circle cx="1978.22" cy="4169.18" r="85.712" style="fill:#fff;"/><path d="M1978.22,4020.97c-81.801,0 -148.212,66.412 -148.212,148.213c-0,81.8 66.411,148.212 148.212,148.212c81.801,0 148.212,-66.412 148.212,-148.212c0,-81.801 -66.411,-148.213 -148.212,-148.213Zm0,62.5c47.306,0 85.712,38.407 85.712,85.713c0,47.306 -38.406,85.712 -85.712,85.712c-47.306,0 -85.712,-38.406 -85.712,-85.712c-0,-47.306 38.406,-85.713 85.712,-85.713Z" style="fill:#ce2256;"/><circle cx="1978.22" cy="4169.18" r="85.712" style="fill:#fff;"/><path d="M1978.22,4020.97c-81.801,0 -148.212,66.412 -148.212,148.213c-0,81.8 66.411,148.212 148.212,148.212c81.801,0 148.212,-66.412 148.212,-148.212c0,-81.801 -66.411,-148.213 -148.212,-148.213Zm0,62.5c47.306,0 85.712,38.407 85.712,85.713c0,47.306 -38.406,85.712 -85.712,85.712c-47.306,0 -85.712,-38.406 -85.712,-85.712c-0,-47.306 38.406,-85.713 85.712,-85.713Z" style="fill:#ce2256;"/><circle cx="2854.2" cy="3997.76" r="85.712" style="fill:#fff;"/><path d="M2854.2,3849.55c-81.801,0 -148.213,66.412 -148.213,148.213c0,81.8 66.412,148.212 148.213,148.212c81.8,0 148.212,-66.412 148.212,-148.212c0,-81.801 -66.412,-148.213 -148.212,-148.213Zm-0,62.5c47.306,0 85.712,38.407 85.712,85.713c0,47.306 -38.406,85.712 -85.712,85.712c-47.306,0 -85.713,-38.406 -85.713,-85.712c0,-47.306 38.407,-85.713 85.713,-85.713Z" style="fill:#ce2256;"/><circle cx="3613.39" cy="3946.66" r="85.712" style="fill:#fff;"/><path d="M3613.39,3798.44c-81.8,0 -148.212,66.412 -148.212,148.213c-0,81.801 66.412,148.212 148.212,148.212c81.801,0 148.213,-66.411 148.213,-148.212c-0,-81.801 -66.412,-148.213 -148.213,-148.213Zm0,62.5c47.306,0 85.713,38.407 85.713,85.713c-0,47.306 -38.407,85.712 -85.713,85.712c-47.306,0 -85.712,-38.406 -85.712,-85.712c-0,-47.306 38.406,-85.713 85.712,-85.713Z" style="fill:#ce2256;"/><circle cx="4408.8" cy="4220.61" r="85.712" style="fill:#fff;"/><path d="M4408.8,4072.4c-81.801,-0 -148.212,66.412 -148.212,148.212c-0,81.801 66.411,148.213 148.212,148.213c81.801,-0 148.213,-66.412 148.213,-148.213c-0,-81.8 -66.412,-148.212 -148.213,-148.212Zm0,62.5c47.306,-0 85.713,38.406 85.713,85.712c-0,47.306 -38.407,85.713 -85.713,85.713c-47.306,-0 -85.712,-38.407 -85.712,-85.713c-0,-47.306 38.406,-85.712 85.712,-85.712Z" style="fill:#ce2256;"/><circle cx="5001.09" cy="4321.41" r="85.712" style="fill:#fff;"/><path d="M5001.09,4173.19c-81.801,0 -148.212,66.412 -148.212,148.213c-0,81.801 66.411,148.212 148.212,148.212c81.801,0 148.213,-66.411 148.213,-148.212c-0,-81.801 -66.412,-148.213 -148.213,-148.213Zm0,62.5c47.306,0 85.713,38.407 85.713,85.713c-0,47.306 -38.407,85.712 -85.713,85.712c-47.306,0 -85.712,-38.406 -85.712,-85.712c-0,-47.306 38.406,-85.713 85.712,-85.713Z" style="fill:#ce2256;"/><circle cx="6451.1" cy="3623.33" r="85.712" style="fill:#fff;"/><path d="M6451.1,3475.12c-81.801,-0 -148.213,66.412 -148.213,148.212c0,81.801 66.412,148.213 148.213,148.213c81.8,-0 148.212,-66.412 148.212,-148.213c0,-81.8 -66.412,-148.212 -148.212,-148.212Zm-0,62.5c47.306,-0 85.712,38.406 85.712,85.712c0,47.306 -38.406,85.713 -85.712,85.713c-47.306,-0 -85.713,-38.407 -85.713,-85.713c0,-47.306 38.407,-85.712 85.713,-85.712Z" style="fill:#ce2256;"/></g><g><circle cx="2849.06" cy="3691.9" r="85.712" style="fill:#fff;"/><path d="M2849.06,3543.69c-81.801,-0 -148.213,66.412 -148.213,148.212c0,81.801 66.412,148.213 148.213,148.213c81.801,-0 148.212,-66.412 148.212,-148.213c0,-81.8 -66.411,-148.212 -148.212,-148.212Zm-0,62.5c47.306,-0 85.712,38.406 85.712,85.712c0,47.306 -38.406,85.713 -85.712,85.713c-47.306,-0 -85.713,-38.407 -85.713,-85.713c0,-47.306 38.407,-85.712 85.713,-85.712Z" style="fill:#ef7835;"/><circle cx="3613.39" cy="3571.91" r="85.712" style="fill:#fff;"/><path d="M3613.39,3423.69c-81.8,0 -148.212,66.412 -148.212,148.213c-0,81.8 66.412,148.212 148.212,148.212c81.801,0 148.213,-66.412 148.213,-148.212c-0,-81.801 -66.412,-148.213 -148.213,-148.213Zm0,62.5c47.306,0 85.713,38.407 85.713,85.713c-0,47.306 -38.407,85.712 -85.713,85.712c-47.306,0 -85.712,-38.406 -85.712,-85.712c-0,-47.306 38.406,-85.713 85.712,-85.713Z" style="fill:#ef7835;"/><circle cx="4386.62" cy="3666.19" r="85.712" style="fill:#fff;"/><path d="M4386.62,3517.98c-81.801,0 -148.212,66.412 -148.212,148.212c-0,81.801 66.411,148.213 148.212,148.213c81.801,-0 148.213,-66.412 148.213,-148.213c-0,-81.8 -66.412,-148.212 -148.213,-148.212Zm0,62.5c47.306,0 85.713,38.406 85.713,85.712c-0,47.306 -38.407,85.713 -85.713,85.713c-47.306,-0 -85.712,-38.407 -85.712,-85.713c-0,-47.306 38.406,-85.712 85.712,-85.712Z" style="fill:#ef7835;"/><circle cx="5007.18" cy="3837.62" r="85.712" style="fill:#fff;"/><path d="M5007.18,3689.4c-81.801,-0 -148.213,66.412 -148.213,148.212c0,81.801 66.412,148.213 148.213,148.213c81.8,-0 148.212,-66.412 148.212,-148.213c-0,-81.8 -66.412,-148.212 -148.212,-148.212Zm-0,62.5c47.306,-0 85.712,38.406 85.712,85.712c-0,47.306 -38.406,85.713 -85.712,85.713c-47.307,-0 -85.713,-38.407 -85.713,-85.713c0,-47.306 38.406,-85.712 85.713,-85.712Z" style="fill:#ef7835;"/><circle cx="6451.1" cy="2875.06" r="85.712" style="fill:#fff;"/><path d="M6451.1,2726.85c-81.801,-0 -148.213,66.412 -148.213,148.212c0,81.801 66.412,148.213 148.213,148.213c81.8,-0 148.212,-66.412 148.212,-148.213c0,-81.8 -66.412,-148.212 -148.212,-148.212Zm-0,62.5c47.306,-0 85.712,38.406 85.712,85.712c0,47.306 -38.406,85.713 -85.712,85.713c-47.306,-0 -85.713,-38.407 -85.713,-85.713c0,-47.306 38.407,-85.712 85.713,-85.712Z" style="fill:#ef7835;"/><circle cx="1978.22" cy="3937.76" r="85.712" style="fill:#fff;"/><path d="M1978.22,3789.55c-81.801,-0 -148.212,66.411 -148.212,148.212c-0,81.801 66.411,148.213 148.212,148.213c81.801,-0 148.212,-66.412 148.212,-148.213c0,-81.801 -66.411,-148.212 -148.212,-148.212Zm0,62.5c47.306,-0 85.712,38.406 85.712,85.712c0,47.306 -38.406,85.713 -85.712,85.713c-47.306,-0 -85.712,-38.407 -85.712,-85.713c-0,-47.306 38.406,-85.712 85.712,-85.712Z" style="fill:#ef7835;"/></g><g><circle cx="1967.93" cy="2989.89" r="85.712" style="fill:#fff;"/><path d="M1967.93,2841.68c-81.801,-0 -148.213,66.411 -148.213,148.212c0,81.801 66.412,148.213 148.213,148.213c81.8,-0 148.212,-66.412 148.212,-148.213c-0,-81.801 -66.412,-148.212 -148.212,-148.212Zm-0,62.5c47.306,-0 85.712,38.406 85.712,85.712c-0,47.306 -38.406,85.713 -85.712,85.713c-47.307,-0 -85.713,-38.407 -85.713,-85.713c0,-47.306 38.406,-85.712 85.713,-85.712Z" style="fill:#fddd3e;"/><circle cx="2849.06" cy="2878.46" r="85.712" style="fill:#fff;"/><path d="M2849.06,2730.25c-81.801,0 -148.213,66.412 -148.213,148.213c0,81.801 66.412,148.212 148.213,148.212c81.801,0 148.212,-66.411 148.212,-148.212c0,-81.801 -66.411,-148.213 -148.212,-148.213Zm-0,62.5c47.306,0 85.712,38.407 85.712,85.713c0,47.306 -38.406,85.712 -85.712,85.712c-47.306,0 -85.713,-38.406 -85.713,-85.712c0,-47.306 38.407,-85.713 85.713,-85.713Z" style="fill:#fddd3e;"/><circle cx="3613.39" cy="2878.46" r="85.712" style="fill:#fff;"/><path d="M3613.39,2730.25c-81.8,0 -148.212,66.412 -148.212,148.213c-0,81.801 66.412,148.212 148.212,148.212c81.801,0 148.213,-66.411 148.213,-148.212c-0,-81.801 -66.412,-148.213 -148.213,-148.213Zm0,62.5c47.306,0 85.713,38.407 85.713,85.713c-0,47.306 -38.407,85.712 -85.713,85.712c-47.306,0 -85.712,-38.406 -85.712,-85.712c-0,-47.306 38.406,-85.713 85.712,-85.713Z" style="fill:#fddd3e;"/><circle cx="4386.62" cy="3084.17" r="85.712" style="fill:#fff;"/><path d="M4386.62,2935.96c-81.801,0 -148.212,66.412 -148.212,148.213c-0,81.801 66.411,148.212 148.212,148.212c81.801,0 148.213,-66.411 148.213,-148.212c-0,-81.801 -66.412,-148.213 -148.213,-148.213Zm0,62.5c47.306,0 85.713,38.407 85.713,85.713c-0,47.306 -38.407,85.712 -85.713,85.712c-47.306,0 -85.712,-38.406 -85.712,-85.712c-0,-47.306 38.406,-85.713 85.712,-85.713Z" style="fill:#fddd3e;"/><circle cx="5001.09" cy="3295.03" r="85.712" style="fill:#fff;"/><path d="M5001.09,3146.81c-81.801,0 -148.212,66.412 -148.212,148.213c-0,81.8 66.411,148.212 148.212,148.212c81.801,0 148.213,-66.412 148.213,-148.212c-0,-81.801 -66.412,-148.213 -148.213,-148.213Zm0,62.5c47.306,0 85.713,38.407 85.713,85.713c-0,47.306 -38.407,85.712 -85.713,85.712c-47.306,0 -85.712,-38.406 -85.712,-85.712c-0,-47.306 38.406,-85.713 85.712,-85.713Z" style="fill:#fddd3e;"/><circle cx="6451.1" cy="2520.86" r="85.712" style="fill:#fff;"/><path d="M6451.1,2372.64c-81.801,-0 -148.213,66.412 -148.213,148.212c0,81.801 66.412,148.213 148.213,148.213c81.8,-0 148.212,-66.412 148.212,-148.213c0,-81.8 -66.412,-148.212 -148.212,-148.212Zm-0,62.5c47.306,-0 85.712,38.406 85.712,85.712c0,47.306 -38.406,85.713 -85.712,85.713c-47.306,-0 -85.713,-38.407 -85.713,-85.713c0,-47.306 38.407,-85.712 85.713,-85.712Z" style="fill:#fddd3e;"/><circle cx="775.674" cy="2904.18" r="85.712" style="fill:#fff;"/><path d="M775.674,2755.97c-81.801,0 -148.213,66.412 -148.213,148.213c0,81.8 66.412,148.212 148.213,148.212c81.8,0 148.212,-66.412 148.212,-148.212c0,-81.801 -66.412,-148.213 -148.212,-148.213Zm-0,62.5c47.306,0 85.712,38.407 85.712,85.713c0,47.306 -38.406,85.712 -85.712,85.712c-47.306,0 -85.713,-38.406 -85.713,-85.712c0,-47.306 38.407,-85.713 85.713,-85.713Z" style="fill:#fddd3e;"/></g><g><circle cx="1967.93" cy="2264.31" r="85.712" style="fill:#fff;"/><path d="M1967.93,2116.1c-81.801,-0 -148.213,66.412 -148.213,148.212c0,81.801 66.412,148.213 148.213,148.213c81.8,-0 148.212,-66.412 148.212,-148.213c-0,-81.8 -66.412,-148.212 -148.212,-148.212Zm-0,62.5c47.306,-0 85.712,38.406 85.712,85.712c-0,47.306 -38.406,85.713 -85.712,85.713c-47.307,-0 -85.713,-38.407 -85.713,-85.713c0,-47.306 38.406,-85.712 85.713,-85.712Z" style="fill:#2eb5b2;"/><circle cx="2846.97" cy="2238.6" r="85.712" style="fill:#fff;"/><path d="M2846.97,2090.38c-81.801,0 -148.213,66.412 -148.213,148.213c0,81.8 66.412,148.212 148.213,148.212c81.801,0 148.212,-66.412 148.212,-148.212c0,-81.801 -66.411,-148.213 -148.212,-148.213Zm-0,62.5c47.306,0 85.712,38.407 85.712,85.713c0,47.306 -38.406,85.712 -85.712,85.712c-47.306,0 -85.713,-38.406 -85.713,-85.712c0,-47.306 38.407,-85.713 85.713,-85.713Z" style="fill:#2eb5b2;"/><circle cx="3613.39" cy="2313.61" r="85.712" style="fill:#fff;"/><path d="M3613.39,2165.4c-81.8,0 -148.212,66.412 -148.212,148.213c-0,81.8 66.412,148.212 148.212,148.212c81.801,0 148.213,-66.412 148.213,-148.212c-0,-81.801 -66.412,-148.213 -148.213,-148.213Zm0,62.5c47.306,0 85.713,38.407 85.713,85.713c-0,47.306 -38.407,85.712 -85.713,85.712c-47.306,0 -85.712,-38.406 -85.712,-85.712c-0,-47.306 38.406,-85.713 85.712,-85.713Z" style="fill:#2eb5b2;"/><circle cx="4386.62" cy="2641.03" r="85.712" style="fill:#fff;"/><path d="M4386.62,2492.82c-81.801,-0 -148.212,66.412 -148.212,148.212c-0,81.801 66.411,148.213 148.212,148.213c81.801,-0 148.213,-66.412 148.213,-148.213c-0,-81.8 -66.412,-148.212 -148.213,-148.212Zm0,62.5c47.306,-0 85.713,38.406 85.713,85.712c-0,47.306 -38.407,85.713 -85.713,85.713c-47.306,-0 -85.712,-38.407 -85.712,-85.713c-0,-47.306 38.406,-85.712 85.712,-85.712Z" style="fill:#2eb5b2;"/><circle cx="5001.09" cy="2929.89" r="85.712" style="fill:#fff;"/><path d="M5001.09,2781.68c-81.801,-0 -148.212,66.412 -148.212,148.212c-0,81.801 66.411,148.213 148.212,148.213c81.801,-0 148.213,-66.412 148.213,-148.213c-0,-81.8 -66.412,-148.212 -148.213,-148.212Zm0,62.5c47.306,-0 85.713,38.406 85.713,85.712c-0,47.306 -38.407,85.713 -85.713,85.713c-47.306,-0 -85.712,-38.407 -85.712,-85.713c-0,-47.306 38.406,-85.712 85.712,-85.712Z" style="fill:#2eb5b2;"/><circle cx="6457.81" cy="2313.61" r="85.712" style="fill:#fff;"/><path d="M6457.81,2165.4c-81.801,0 -148.213,66.412 -148.213,148.213c0,81.8 66.412,148.212 148.213,148.212c81.8,0 148.212,-66.412 148.212,-148.212c0,-81.801 -66.412,-148.213 -148.212,-148.213Zm-0,62.5c47.306,0 85.712,38.407 85.712,85.713c0,47.306 -38.406,85.712 -85.712,85.712c-47.306,0 -85.713,-38.406 -85.713,-85.712c0,-47.306 38.407,-85.713 85.713,-85.713Z" style="fill:#2eb5b2;"/><circle cx="775.674" cy="1976.32" r="85.712" style="fill:#fff;"/><path d="M775.674,1828.1c-81.801,-0 -148.213,66.412 -148.213,148.212c0,81.801 66.412,148.213 148.213,148.213c81.8,-0 148.212,-66.412 148.212,-148.213c0,-81.8 -66.412,-148.212 -148.212,-148.212Zm-0,62.5c47.306,-0 85.712,38.406 85.712,85.712c0,47.306 -38.406,85.713 -85.712,85.713c-47.306,-0 -85.713,-38.407 -85.713,-85.713c0,-47.306 38.407,-85.712 85.713,-85.712Z" style="fill:#2eb5b2;"/></g><g><circle cx="1973.08" cy="1693.46" r="85.712" style="fill:#fff;"/><path d="M1973.08,1545.25c-81.8,-0 -148.212,66.411 -148.212,148.212c-0,81.801 66.412,148.213 148.212,148.213c81.801,-0 148.213,-66.412 148.213,-148.213c-0,-81.801 -66.412,-148.212 -148.213,-148.212Zm0,62.5c47.306,-0 85.713,38.406 85.713,85.712c-0,47.306 -38.407,85.713 -85.713,85.713c-47.306,-0 -85.712,-38.407 -85.712,-85.713c-0,-47.306 38.406,-85.712 85.712,-85.712Z" style="fill:#7b67a8;"/><circle cx="2846.97" cy="1349.76" r="85.712" style="fill:#fff;"/><path d="M2846.97,1201.55c-81.801,-0 -148.213,66.411 -148.213,148.212c0,81.801 66.412,148.212 148.213,148.212c81.801,0 148.212,-66.411 148.212,-148.212c0,-81.801 -66.411,-148.212 -148.212,-148.212Zm-0,62.5c47.306,-0 85.712,38.406 85.712,85.712c0,47.306 -38.406,85.712 -85.712,85.712c-47.306,0 -85.713,-38.406 -85.713,-85.712c0,-47.306 38.407,-85.712 85.713,-85.712Z" style="fill:#7b67a8;"/><circle cx="2846.97" cy="1349.76" r="85.712" style="fill:#fff;"/><path d="M2846.97,1201.55c-81.801,-0 -148.213,66.411 -148.213,148.212c0,81.801 66.412,148.212 148.213,148.212c81.801,0 148.212,-66.411 148.212,-148.212c0,-81.801 -66.411,-148.212 -148.212,-148.212Zm-0,62.5c47.306,-0 85.712,38.406 85.712,85.712c0,47.306 -38.406,85.712 -85.712,85.712c-47.306,0 -85.713,-38.406 -85.713,-85.712c0,-47.306 38.407,-85.712 85.713,-85.712Z" style="fill:#7b67a8;"/><circle cx="3611.69" cy="1155.61" r="85.712" style="fill:#fff;"/><path d="M3611.69,1007.4c-81.801,0 -148.213,66.412 -148.213,148.213c0,81.8 66.412,148.212 148.213,148.212c81.8,0 148.212,-66.412 148.212,-148.212c0,-81.801 -66.412,-148.213 -148.212,-148.213Zm-0,62.5c47.306,0 85.712,38.407 85.712,85.713c0,47.306 -38.406,85.712 -85.712,85.712c-47.306,0 -85.713,-38.406 -85.713,-85.712c0,-47.306 38.407,-85.713 85.713,-85.713Z" style="fill:#7b67a8;"/><circle cx="4415.68" cy="1264.05" r="85.712" style="fill:#fff;"/><path d="M4415.68,1115.83c-81.801,0 -148.213,66.412 -148.213,148.213c0,81.8 66.412,148.212 148.213,148.212c81.801,0 148.212,-66.412 148.212,-148.212c0,-81.801 -66.411,-148.213 -148.212,-148.213Zm-0,62.5c47.306,0 85.712,38.407 85.712,85.713c0,47.306 -38.406,85.712 -85.712,85.712c-47.306,0 -85.713,-38.406 -85.713,-85.712c0,-47.306 38.407,-85.713 85.713,-85.713Z" style="fill:#7b67a8;"/><circle cx="5001.09" cy="1435.47" r="85.712" style="fill:#fff;"/><path d="M5001.09,1287.26c-81.801,0 -148.212,66.412 -148.212,148.212c-0,81.801 66.411,148.213 148.212,148.213c81.801,-0 148.213,-66.412 148.213,-148.213c-0,-81.8 -66.412,-148.212 -148.213,-148.212Zm0,62.5c47.306,0 85.713,38.406 85.713,85.712c-0,47.307 -38.407,85.713 -85.713,85.713c-47.306,-0 -85.712,-38.406 -85.712,-85.713c-0,-47.306 38.406,-85.712 85.712,-85.712Z" style="fill:#7b67a8;"/><circle cx="6457.81" cy="1435.47" r="85.712" style="fill:#fff;"/><path d="M6457.81,1287.26c-81.801,0 -148.213,66.412 -148.213,148.212c0,81.801 66.412,148.213 148.213,148.213c81.8,-0 148.212,-66.412 148.212,-148.213c0,-81.8 -66.412,-148.212 -148.212,-148.212Zm-0,62.5c47.306,0 85.712,38.406 85.712,85.712c0,47.307 -38.406,85.713 -85.712,85.713c-47.306,-0 -85.713,-38.406 -85.713,-85.713c0,-47.306 38.407,-85.712 85.713,-85.712Z" style="fill:#7b67a8;"/><circle cx="775.674" cy="1804.89" r="85.712" style="fill:#fff;"/><path d="M775.674,1656.68c-81.801,-0 -148.213,66.412 -148.213,148.212c0,81.801 66.412,148.213 148.213,148.213c81.8,-0 148.212,-66.412 148.212,-148.213c0,-81.8 -66.412,-148.212 -148.212,-148.212Zm-0,62.5c47.306,-0 85.712,38.406 85.712,85.712c0,47.306 -38.406,85.713 -85.712,85.713c-47.306,-0 -85.713,-38.407 -85.713,-85.713c0,-47.306 38.407,-85.712 85.713,-85.712Z" style="fill:#7b67a8;"/></g><circle cx="1973.08" cy="836.362" r="85.712" style="fill:#fff;"/><path d="M1973.08,688.149c-81.8,0 -148.212,66.412 -148.212,148.213c-0,81.8 66.412,148.212 148.212,148.212c81.801,0 148.213,-66.412 148.213,-148.212c-0,-81.801 -66.412,-148.213 -148.213,-148.213Zm0,62.5c47.306,0 85.713,38.407 85.713,85.713c-0,47.306 -38.407,85.712 -85.713,85.712c-47.306,0 -85.712,-38.406 -85.712,-85.712c-0,-47.306 38.406,-85.713 85.712,-85.713Z" style="fill:#14022e;"/><circle cx="1973.08" cy="836.362" r="85.712" style="fill:#fff;"/><path d="M1973.08,688.149c-81.8,0 -148.212,66.412 -148.212,148.213c-0,81.8 66.412,148.212 148.212,148.212c81.801,0 148.213,-66.412 148.213,-148.212c-0,-81.801 -66.412,-148.213 -148.213,-148.213Zm0,62.5c47.306,0 85.713,38.407 85.713,85.713c-0,47.306 -38.407,85.712 -85.713,85.712c-47.306,0 -85.712,-38.406 -85.712,-85.712c-0,-47.306 38.406,-85.713 85.712,-85.713Z" style="fill:#14022e;"/><circle cx="2846.97" cy="664.937" r="85.712" style="fill:#fff;"/><path d="M2846.97,516.724c-81.801,0 -148.213,66.412 -148.213,148.213c0,81.8 66.412,148.212 148.213,148.212c81.801,0 148.212,-66.412 148.212,-148.212c0,-81.801 -66.411,-148.213 -148.212,-148.213Zm-0,62.5c47.306,0 85.712,38.407 85.712,85.713c0,47.306 -38.406,85.712 -85.712,85.712c-47.306,0 -85.713,-38.406 -85.713,-85.712c0,-47.306 38.407,-85.713 85.713,-85.713Z" style="fill:#14022e;"/><circle cx="3611.69" cy="639.223" r="85.712" style="fill:#fff;"/><path d="M3611.69,491.01c-81.801,0 -148.213,66.412 -148.213,148.213c0,81.801 66.412,148.212 148.213,148.212c81.8,0 148.212,-66.411 148.212,-148.212c0,-81.801 -66.412,-148.213 -148.212,-148.213Zm-0,62.5c47.306,0 85.712,38.407 85.712,85.713c0,47.306 -38.406,85.712 -85.712,85.712c-47.306,0 -85.713,-38.406 -85.713,-85.712c0,-47.306 38.407,-85.713 85.713,-85.713Z" style="fill:#14022e;"/><circle cx="4415.68" cy="896.36" r="85.712" style="fill:#fff;"/><path d="M4415.68,748.148c-81.801,-0 -148.213,66.412 -148.213,148.212c0,81.801 66.412,148.213 148.213,148.213c81.801,-0 148.212,-66.412 148.212,-148.213c0,-81.8 -66.411,-148.212 -148.212,-148.212Zm-0,62.5c47.306,-0 85.712,38.406 85.712,85.712c0,47.306 -38.406,85.713 -85.712,85.713c-47.306,-0 -85.713,-38.407 -85.713,-85.713c0,-47.306 38.407,-85.712 85.713,-85.712Z" style="fill:#14022e;"/><circle cx="5001.09" cy="1133.97" r="85.712" style="fill:#fff;"/><path d="M5001.09,985.758c-81.801,0 -148.212,66.412 -148.212,148.213c-0,81.8 66.411,148.212 148.212,148.212c81.801,0 148.213,-66.412 148.213,-148.212c-0,-81.801 -66.412,-148.213 -148.213,-148.213Zm0,62.5c47.306,0 85.713,38.407 85.713,85.713c-0,47.306 -38.407,85.712 -85.713,85.712c-47.306,0 -85.712,-38.406 -85.712,-85.712c-0,-47.306 38.406,-85.713 85.712,-85.713Z" style="fill:#14022e;"/><circle cx="6457.81" cy="810.648" r="85.712" style="fill:#fff;"/><path d="M6457.81,662.435c-81.801,0 -148.213,66.412 -148.213,148.213c0,81.801 66.412,148.212 148.213,148.212c81.8,0 148.212,-66.411 148.212,-148.212c0,-81.801 -66.412,-148.213 -148.212,-148.213Zm-0,62.5c47.306,0 85.712,38.407 85.712,85.713c0,47.306 -38.406,85.712 -85.712,85.712c-47.306,0 -85.713,-38.406 -85.713,-85.712c0,-47.306 38.407,-85.713 85.713,-85.713Z" style="fill:#14022e;"/><circle cx="775.674" cy="690.65" r="85.712" style="fill:#fff;"/><path d="M775.674,542.438c-81.801,-0 -148.213,66.412 -148.213,148.212c0,81.801 66.412,148.213 148.213,148.213c81.8,-0 148.212,-66.412 148.212,-148.213c0,-81.8 -66.412,-148.212 -148.212,-148.212Zm-0,62.5c47.306,-0 85.712,38.406 85.712,85.712c0,47.306 -38.406,85.713 -85.712,85.713c-47.306,-0 -85.713,-38.407 -85.713,-85.713c0,-47.306 38.407,-85.712 85.713,-85.712Z" style="fill:#14022e;"/></g></svg>