<?xml version="1.0" encoding="UTF-8" standalone="no"?><!DOCTYPE svg PUBLIC "-//W3C//DTD SVG 1.1//EN" "http://www.w3.org/Graphics/SVG/1.1/DTD/svg11.dtd"><svg width="100%" height="100%" viewBox="0 0 7200 4961" version="1.1" xmlns="http://www.w3.org/2000/svg" xmlns:xlink="http://www.w3.org/1999/xlink" xml:space="preserve" xmlns:serif="http://www.serif.com/" style="fill-rule:evenodd;clip-rule:evenodd;stroke-linejoin:round;stroke-miterlimit:2;"><rect id="pyramid" x="0" y="0" width="7200" height="4960.63" style="fill:none;"/><g><g><g><rect x="2000.62" y="577.815" width="33.482" height="41.02" style="fill:#ce2256;"/><rect x="2000.62" y="657.057" width="133.93" height="41.02" style="fill:#ce2256;"/><rect x="2000.62" y="617.436" width="66.965" height="41.02" style="fill:#ce2256;"/><rect x="2000.62" y="696.677" width="188.691" height="41.02" style="fill:#ce2256;"/><rect x="2000.62" y="775.919" width="188.691" height="41.02" style="fill:#ce2256;"/><rect x="2000.62" y="736.298" width="213.918" height="41.02" style="fill:#ce2256;"/><rect x="2000.62" y="815.54" width="213.918" height="41.02" style="fill:#ce2256;"/><rect x="2000.62" y="894.782" width="316.673" height="41.02" style="fill:#ce2256;"/><rect x="2000.62" y="855.161" width="267.86" height="41.02" style="fill:#ce2256;"/><rect x="2000.62" y="934.403" width="346.207" height="41.02" style="fill:#ce2256;"/><rect x="2000.62" y="1013.64" width="427.837" height="41.02" style="fill:#ce2256;"/><rect x="2000.62" y="974.023" width="377.382" height="41.02" style="fill:#ce2256;"/><rect x="2000.62" y="1053.27" width="465.985" height="41.02" style="fill:#ce2256;"/><rect x="2000.62" y="1132.51" width="535.719" height="41.02" style="fill:#ce2256;"/><rect x="2000.62" y="1092.89" width="506.185" height="41.02" style="fill:#ce2256;"/><rect x="2000.62" y="1172.13" width="560.331" height="41.02" style="fill:#ce2256;"/><rect x="2000.62" y="1251.37" width="662.881" height="41.02" style="fill:#ce2256;"/><rect x="2000.62" y="1211.75" width="610.375" height="41.02" style="fill:#ce2256;"/><rect x="2000.62" y="1290.99" width="692.415" height="41.02" style="fill:#ce2256;"/><rect x="2000.62" y="1370.23" width="847.47" height="41.02" style="fill:#ce2256;"/><rect x="2000.62" y="1330.61" width="776.095" height="41.02" style="fill:#ce2256;"/><rect x="2000.62" y="1409.85" width="937.713" height="41.02" style="fill:#ce2256;"/><rect x="2000.62" y="1489.09" width="961.505" height="41.02" style="fill:#ce2256;"/><rect x="2000.62" y="1449.47" width="977.092" height="41.02" style="fill:#ce2256;"/><rect x="2000.62" y="1528.71" width="937.713" height="41.02" style="fill:#ce2256;"/><rect x="2000.62" y="1607.96" width="937.713" height="41.02" style="fill:#ce2256;"/><rect x="2000.62" y="1568.34" width="908.179" height="41.02" style="fill:#ce2256;"/><rect x="2000.62" y="1647.58" width="977.092" height="41.02" style="fill:#ce2256;"/><rect x="2000.62" y="1726.82" width="1050.11" height="41.02" style="fill:#ce2256;"/><rect x="2000.62" y="1687.2" width="1010.73" height="41.02" style="fill:#ce2256;"/><rect x="2000.62" y="1766.44" width="1082.1" height="41.02" style="fill:#ce2256;"/><rect x="2000.62" y="1845.68" width="1142.81" height="41.02" style="fill:#ce2256;"/><rect x="2000.62" y="1806.06" width="1113.28" height="41.02" style="fill:#ce2256;"/><rect x="2000.62" y="1885.3" width="1164.96" height="41.02" style="fill:#ce2256;"/><rect x="2000.62" y="1964.54" width="1210.09" height="41.02" style="fill:#ce2256;"/><rect x="2000.62" y="1924.92" width="1187.93" height="41.02" style="fill:#ce2256;"/><rect x="2000.62" y="2004.16" width="1228.13" height="41.02" style="fill:#ce2256;"/><rect x="2000.62" y="2083.41" width="1281.46" height="41.02" style="fill:#ce2256;"/><rect x="2000.62" y="2043.79" width="1252.75" height="41.02" style="fill:#ce2256;"/><rect x="2000.62" y="2123.03" width="1305.25" height="41.02" style="fill:#ce2256;"/><rect x="2000.62" y="2202.27" width="1327.4" height="41.02" style="fill:#ce2256;"/><rect x="2000.62" y="2162.65" width="1343.81" height="41.02" style="fill:#ce2256;"/><rect x="2000.62" y="2241.89" width="1343.81" height="41.02" style="fill:#ce2256;"/><rect x="2000.62" y="2321.13" width="1327.4" height="41.02" style="fill:#ce2256;"/><rect x="2000.62" y="2281.51" width="1305.25" height="41.02" style="fill:#ce2256;"/><rect x="2000.62" y="2360.75" width="1343.81" height="41.02" style="fill:#ce2256;"/><rect x="2000.62" y="2439.99" width="1305.25" height="41.02" style="fill:#ce2256;"/><rect x="2000.62" y="2400.37" width="1327.4" height="41.02" style="fill:#ce2256;"/><rect x="2000.62" y="2479.62" width="1280.64" height="41.02" style="fill:#ce2256;"/><rect x="2000.62" y="2558.86" width="1231.41" height="41.02" style="fill:#ce2256;"/><rect x="2000.62" y="2519.24" width="1257.67" height="41.02" style="fill:#ce2256;"/><rect x="2000.62" y="2598.48" width="1212.55" height="41.02" style="fill:#ce2256;"/><rect x="2000.62" y="2677.72" width="1158.4" height="41.02" style="fill:#ce2256;"/><rect x="2000.62" y="2638.1" width="1186.29" height="41.02" style="fill:#ce2256;"/><rect x="2000.62" y="2717.34" width="1136.25" height="41.02" style="fill:#ce2256;"/><rect x="2000.62" y="2796.58" width="1096.05" height="41.02" style="fill:#ce2256;"/><rect x="2000.62" y="2756.96" width="1117.38" height="41.02" style="fill:#ce2256;"/><rect x="2000.62" y="2836.2" width="1081.28" height="41.02" style="fill:#ce2256;"/><rect x="2000.62" y="2915.45" width="1051.75" height="41.02" style="fill:#ce2256;"/><rect x="2000.62" y="2875.82" width="1068.98" height="41.02" style="fill:#ce2256;"/><rect x="2000.62" y="2955.07" width="1033.7" height="41.02" style="fill:#ce2256;"/><rect x="2000.62" y="3034.31" width="981.194" height="41.02" style="fill:#ce2256;"/><rect x="2000.62" y="2994.69" width="1001.7" height="41.02" style="fill:#ce2256;"/><rect x="2000.62" y="3073.93" width="974.631" height="41.02" style="fill:#ce2256;"/><rect x="2000.62" y="3153.17" width="981.194" height="41.02" style="fill:#ce2256;"/><rect x="2000.62" y="3113.55" width="982.015" height="41.02" style="fill:#ce2256;"/><rect x="2000.62" y="3192.79" width="974.631" height="41.02" style="fill:#ce2256;"/><rect x="2000.62" y="3272.03" width="981.194" height="41.02" style="fill:#ce2256;"/><rect x="2000.62" y="3232.41" width="967.248" height="41.02" style="fill:#ce2256;"/><rect x="2000.62" y="3311.65" width="967.248" height="41.02" style="fill:#ce2256;"/><rect x="2000.62" y="3390.89" width="981.194" height="41.02" style="fill:#ce2256;"/><rect x="2000.62" y="3351.27" width="974.631" height="41.02" style="fill:#ce2256;"/><rect x="2000.62" y="3430.52" width="1004.17" height="41.02" style="fill:#ce2256;"/><rect x="2000.62" y="3509.76" width="1062.41" height="41.02" style="fill:#ce2256;"/><rect x="2000.62" y="3470.14" width="1034.52" height="41.02" style="fill:#ce2256;"/><rect x="2000.62" y="3549.38" width="1110" height="41.02" style="fill:#ce2256;"/><rect x="2000.62" y="3628.62" width="1171.53" height="41.02" style="fill:#ce2256;"/><rect x="2000.62" y="3589" width="1137.89" height="41.02" style="fill:#ce2256;"/><rect x="2000.62" y="3668.24" width="1159.22" height="41.02" style="fill:#ce2256;"/><rect x="2000.62" y="3747.48" width="1182.19" height="41.02" style="fill:#ce2256;"/><rect x="2000.62" y="3707.86" width="1171.53" height="41.02" style="fill:#ce2256;"/><rect x="2000.62" y="3787.1" width="1201.06" height="41.02" style="fill:#ce2256;"/><rect x="2000.62" y="3866.35" width="1230.6" height="41.02" style="fill:#ce2256;"/><rect x="2000.62" y="3826.72" width="1245.36" height="41.02" style="fill:#ce2256;"/><rect x="2000.62" y="3905.97" width="1221.57" height="41.02" style="fill:#ce2256;"/><rect x="2000.62" y="3985.21" width="1265.05" height="41.02" style="fill:#ce2256;"/><rect x="2000.62" y="3945.59" width="1252.75" height="41.02" style="fill:#ce2256;"/><rect x="2000.62" y="4024.83" width="1275.72" height="41.02" style="fill:#ce2256;"/><rect x="2000.62" y="4104.07" width="1252.75" height="41.02" style="fill:#ce2256;"/><rect x="2000.62" y="4064.45" width="1284.74" height="41.02" style="fill:#ce2256;"/><rect x="2000.62" y="4143.69" width="1228.95" height="41.02" style="fill:#ce2256;"/><rect x="2000.62" y="4222.93" width="1155.94" height="41.02" style="fill:#ce2256;"/><rect x="2000.62" y="4183.31" width="1208.44" height="41.02" style="fill:#ce2256;"/><rect x="2000.62" y="4262.55" width="1117.38" height="41.02" style="fill:#ce2256;"/><rect x="2000.62" y="4341.8" width="855.674" height="41.02" style="fill:#ce2256;"/><rect x="2000.62" y="4302.17" width="1080.46" height="41.02" style="fill:#ce2256;"/></g><g><rect x="1780.9" y="577.815" width="33.482" height="41.02" style="fill:#14022e;"/><rect x="1680.45" y="657.057" width="133.93" height="41.02" style="fill:#14022e;"/><rect x="1747.42" y="617.436" width="66.965" height="41.02" style="fill:#14022e;"/><rect x="1625.69" y="696.677" width="188.691" height="41.02" style="fill:#14022e;"/><rect x="1625.69" y="775.919" width="188.691" height="41.02" style="fill:#14022e;"/><rect x="1600.47" y="736.298" width="213.918" height="41.02" style="fill:#14022e;"/><rect x="1600.47" y="815.54" width="213.918" height="41.02" style="fill:#14022e;"/><rect x="1497.71" y="894.782" width="316.673" height="41.02" style="fill:#14022e;"/><rect x="1546.53" y="855.161" width="267.86" height="41.02" style="fill:#14022e;"/><rect x="1468.18" y="934.403" width="346.207" height="41.02" style="fill:#14022e;"/><rect x="1386.55" y="1013.64" width="427.837" height="41.02" style="fill:#14022e;"/><rect x="1437" y="974.023" width="377.382" height="41.02" style="fill:#14022e;"/><rect x="1348.4" y="1053.27" width="465.985" height="41.02" style="fill:#14022e;"/><rect x="1278.67" y="1132.51" width="535.719" height="41.02" style="fill:#14022e;"/><rect x="1308.2" y="1092.89" width="506.185" height="41.02" style="fill:#14022e;"/><rect x="1254.05" y="1172.13" width="560.331" height="41.02" style="fill:#14022e;"/><rect x="1151.5" y="1251.37" width="662.881" height="41.02" style="fill:#14022e;"/><rect x="1204.01" y="1211.75" width="610.375" height="41.02" style="fill:#14022e;"/><rect x="1121.97" y="1290.99" width="692.415" height="41.02" style="fill:#14022e;"/><rect x="966.915" y="1370.23" width="847.47" height="41.02" style="fill:#14022e;"/><rect x="1038.29" y="1330.61" width="776.095" height="41.02" style="fill:#14022e;"/><rect x="876.672" y="1409.85" width="937.713" height="41.02" style="fill:#14022e;"/><rect x="852.88" y="1489.09" width="961.505" height="41.02" style="fill:#14022e;"/><rect x="837.292" y="1449.47" width="977.092" height="41.02" style="fill:#14022e;"/><rect x="876.672" y="1528.71" width="937.713" height="41.02" style="fill:#14022e;"/><rect x="876.672" y="1607.96" width="937.713" height="41.02" style="fill:#14022e;"/><rect x="906.206" y="1568.34" width="908.179" height="41.02" style="fill:#14022e;"/><rect x="837.292" y="1647.58" width="977.092" height="41.02" style="fill:#14022e;"/><rect x="764.277" y="1726.82" width="1050.11" height="41.02" style="fill:#14022e;"/><rect x="803.656" y="1687.2" width="1010.73" height="41.02" style="fill:#14022e;"/><rect x="732.282" y="1766.44" width="1082.1" height="41.02" style="fill:#14022e;"/><rect x="671.572" y="1845.68" width="1142.81" height="41.02" style="fill:#14022e;"/><rect x="701.107" y="1806.06" width="1113.28" height="41.02" style="fill:#14022e;"/><rect x="649.422" y="1885.3" width="1164.96" height="41.02" style="fill:#14022e;"/><rect x="604.3" y="1964.54" width="1210.09" height="41.02" style="fill:#14022e;"/><rect x="626.451" y="1924.92" width="1187.93" height="41.02" style="fill:#14022e;"/><rect x="586.251" y="2004.16" width="1228.13" height="41.02" style="fill:#14022e;"/><rect x="532.925" y="2083.41" width="1281.46" height="41.02" style="fill:#14022e;"/><rect x="561.639" y="2043.79" width="1252.75" height="41.02" style="fill:#14022e;"/><rect x="509.134" y="2123.03" width="1305.25" height="41.02" style="fill:#14022e;"/><rect x="486.983" y="2202.27" width="1327.4" height="41.02" style="fill:#14022e;"/><rect x="470.575" y="2162.65" width="1343.81" height="41.02" style="fill:#14022e;"/><rect x="470.575" y="2241.89" width="1343.81" height="41.02" style="fill:#14022e;"/><rect x="486.983" y="2321.13" width="1327.4" height="41.02" style="fill:#14022e;"/><rect x="509.134" y="2281.51" width="1305.25" height="41.02" style="fill:#14022e;"/><rect x="470.575" y="2360.75" width="1343.81" height="41.02" style="fill:#14022e;"/><rect x="509.134" y="2439.99" width="1305.25" height="41.02" style="fill:#14022e;"/><rect x="486.983" y="2400.37" width="1327.4" height="41.02" style="fill:#14022e;"/><rect x="533.746" y="2479.62" width="1280.64" height="41.02" style="fill:#14022e;"/><rect x="582.969" y="2558.86" width="1231.41" height="41.02" style="fill:#14022e;"/><rect x="556.717" y="2519.24" width="1257.67" height="41.02" style="fill:#14022e;"/><rect x="601.839" y="2598.48" width="1212.55" height="41.02" style="fill:#14022e;"/><rect x="655.985" y="2677.72" width="1158.4" height="41.02" style="fill:#14022e;"/><rect x="628.091" y="2638.1" width="1186.29" height="41.02" style="fill:#14022e;"/><rect x="678.136" y="2717.34" width="1136.25" height="41.02" style="fill:#14022e;"/><rect x="718.335" y="2796.58" width="1096.05" height="41.02" style="fill:#14022e;"/><rect x="697.005" y="2756.96" width="1117.38" height="41.02" style="fill:#14022e;"/><rect x="733.102" y="2836.2" width="1081.28" height="41.02" style="fill:#14022e;"/><rect x="762.636" y="2915.45" width="1051.75" height="41.02" style="fill:#14022e;"/><rect x="745.408" y="2875.82" width="1068.98" height="41.02" style="fill:#14022e;"/><rect x="780.685" y="2955.07" width="1033.7" height="41.02" style="fill:#14022e;"/><rect x="833.19" y="3034.31" width="981.194" height="41.02" style="fill:#14022e;"/><rect x="812.681" y="2994.69" width="1001.7" height="41.02" style="fill:#14022e;"/><rect x="839.754" y="3073.93" width="974.631" height="41.02" style="fill:#14022e;"/><rect x="833.19" y="3153.17" width="981.194" height="41.02" style="fill:#14022e;"/><rect x="832.37" y="3113.55" width="982.015" height="41.02" style="fill:#14022e;"/><rect x="839.754" y="3192.79" width="974.631" height="41.02" style="fill:#14022e;"/><rect x="833.19" y="3272.03" width="981.194" height="41.02" style="fill:#14022e;"/><rect x="847.137" y="3232.41" width="967.248" height="41.02" style="fill:#14022e;"/><rect x="847.137" y="3311.65" width="967.248" height="41.02" style="fill:#14022e;"/><rect x="833.19" y="3390.89" width="981.194" height="41.02" style="fill:#14022e;"/><rect x="839.754" y="3351.27" width="974.631" height="41.02" style="fill:#14022e;"/><rect x="810.219" y="3430.52" width="1004.17" height="41.02" style="fill:#14022e;"/><rect x="751.971" y="3509.76" width="1062.41" height="41.02" style="fill:#14022e;"/><rect x="779.865" y="3470.14" width="1034.52" height="41.02" style="fill:#14022e;"/><rect x="704.388" y="3549.38" width="1110" height="41.02" style="fill:#14022e;"/><rect x="642.858" y="3628.62" width="1171.53" height="41.02" style="fill:#14022e;"/><rect x="676.495" y="3589" width="1137.89" height="41.02" style="fill:#14022e;"/><rect x="655.164" y="3668.24" width="1159.22" height="41.02" style="fill:#14022e;"/><rect x="632.193" y="3747.48" width="1182.19" height="41.02" style="fill:#14022e;"/><rect x="642.858" y="3707.86" width="1171.53" height="41.02" style="fill:#14022e;"/><rect x="613.324" y="3787.1" width="1201.06" height="41.02" style="fill:#14022e;"/><rect x="583.79" y="3866.35" width="1230.6" height="41.02" style="fill:#14022e;"/><rect x="569.023" y="3826.72" width="1245.36" height="41.02" style="fill:#14022e;"/><rect x="592.814" y="3905.97" width="1221.57" height="41.02" style="fill:#14022e;"/><rect x="549.333" y="3985.21" width="1265.05" height="41.02" style="fill:#14022e;"/><rect x="561.639" y="3945.59" width="1252.75" height="41.02" style="fill:#14022e;"/><rect x="538.668" y="4024.83" width="1275.72" height="41.02" style="fill:#14022e;"/><rect x="561.639" y="4104.07" width="1252.75" height="41.02" style="fill:#14022e;"/><rect x="529.644" y="4064.45" width="1284.74" height="41.02" style="fill:#14022e;"/><rect x="585.431" y="4143.69" width="1228.95" height="41.02" style="fill:#14022e;"/><rect x="658.446" y="4222.93" width="1155.94" height="41.02" style="fill:#14022e;"/><rect x="605.941" y="4183.31" width="1208.44" height="41.02" style="fill:#14022e;"/><rect x="697.005" y="4262.55" width="1117.38" height="41.02" style="fill:#14022e;"/><rect x="958.711" y="4341.8" width="855.674" height="41.02" style="fill:#14022e;"/><rect x="733.922" y="4302.17" width="1080.46" height="41.02" style="fill:#14022e;"/></g></g><g><g><rect x="5385.61" y="577.815" width="33.482" height="41.02" style="fill:#ce2256;"/><rect x="5385.61" y="657.057" width="133.93" height="41.02" style="fill:#ce2256;"/><rect x="5385.61" y="617.436" width="66.965" height="41.02" style="fill:#ce2256;"/><rect x="5385.61" y="696.677" width="188.691" height="41.02" style="fill:#ce2256;"/><rect x="5385.61" y="775.919" width="188.691" height="41.02" style="fill:#ce2256;"/><rect x="5385.61" y="736.298" width="213.918" height="41.02" style="fill:#ce2256;"/><rect x="5385.61" y="815.54" width="213.918" height="41.02" style="fill:#ce2256;"/><rect x="5385.61" y="894.782" width="316.673" height="41.02" style="fill:#ce2256;"/><rect x="5385.61" y="855.161" width="267.86" height="41.02" style="fill:#ce2256;"/><rect x="5385.61" y="934.403" width="346.207" height="41.02" style="fill:#ce2256;"/><rect x="5385.61" y="1013.64" width="427.837" height="41.02" style="fill:#ce2256;"/><rect x="5385.61" y="974.023" width="377.382" height="41.02" style="fill:#ce2256;"/><rect x="5385.61" y="1053.27" width="465.985" height="41.02" style="fill:#ce2256;"/><rect x="5385.61" y="1132.51" width="535.719" height="41.02" style="fill:#ce2256;"/><rect x="5385.61" y="1092.89" width="506.185" height="41.02" style="fill:#ce2256;"/><rect x="5385.61" y="1172.13" width="560.331" height="41.02" style="fill:#ce2256;"/><rect x="5385.61" y="1251.37" width="662.881" height="41.02" style="fill:#ce2256;"/><rect x="5385.61" y="1211.75" width="610.375" height="41.02" style="fill:#ce2256;"/><rect x="5385.61" y="1290.99" width="692.415" height="41.02" style="fill:#ce2256;"/><rect x="5385.61" y="1370.23" width="847.47" height="41.02" style="fill:#ce2256;"/><rect x="5385.61" y="1330.61" width="776.095" height="41.02" style="fill:#ce2256;"/><rect x="5385.61" y="1409.85" width="937.713" height="41.02" style="fill:#ce2256;"/><rect x="5385.61" y="1489.09" width="961.505" height="41.02" style="fill:#ce2256;"/><rect x="5385.61" y="1449.47" width="977.092" height="41.02" style="fill:#ce2256;"/><rect x="5385.61" y="1528.71" width="937.713" height="41.02" style="fill:#ce2256;"/><rect x="5385.61" y="1607.96" width="937.713" height="41.02" style="fill:#ce2256;"/><rect x="5385.61" y="1568.34" width="908.179" height="41.02" style="fill:#ce2256;"/><rect x="5385.61" y="1647.58" width="977.092" height="41.02" style="fill:#ce2256;"/><rect x="5385.61" y="1726.82" width="1050.11" height="41.02" style="fill:#ce2256;"/><rect x="5385.61" y="1687.2" width="1010.73" height="41.02" style="fill:#ce2256;"/><rect x="5385.61" y="1766.44" width="1082.1" height="41.02" style="fill:#ce2256;"/><rect x="5385.61" y="1845.68" width="1142.81" height="41.02" style="fill:#ce2256;"/><rect x="5385.61" y="1806.06" width="1113.28" height="41.02" style="fill:#ce2256;"/><rect x="5385.61" y="1885.3" width="1164.96" height="41.02" style="fill:#ce2256;"/><rect x="5385.61" y="1964.54" width="1210.09" height="41.02" style="fill:#ce2256;"/><rect x="5385.61" y="1924.92" width="1187.93" height="41.02" style="fill:#ce2256;"/><rect x="5385.61" y="2004.16" width="1228.13" height="41.02" style="fill:#ce2256;"/><rect x="5385.61" y="2083.41" width="1281.46" height="41.02" style="fill:#ce2256;"/><rect x="5385.61" y="2043.79" width="1252.75" height="41.02" style="fill:#ce2256;"/><rect x="5385.61" y="2123.03" width="1305.25" height="41.02" style="fill:#ce2256;"/><rect x="5385.61" y="2202.27" width="1327.4" height="41.02" style="fill:#ce2256;"/><rect x="5385.61" y="2162.65" width="1343.81" height="41.02" style="fill:#ce2256;"/><rect x="5385.61" y="2241.89" width="1343.81" height="41.02" style="fill:#ce2256;"/><rect x="5385.61" y="2321.13" width="1327.4" height="41.02" style="fill:#ce2256;"/><rect x="5385.61" y="2281.51" width="1305.25" height="41.02" style="fill:#ce2256;"/><rect x="5385.61" y="2360.75" width="1343.81" height="41.02" style="fill:#ce2256;"/><rect x="5385.61" y="2439.99" width="1305.25" height="41.02" style="fill:#ce2256;"/><rect x="5385.61" y="2400.37" width="1327.4" height="41.02" style="fill:#ce2256;"/><rect x="5385.61" y="2479.62" width="1280.64" height="41.02" style="fill:#ce2256;"/><rect x="5385.61" y="2558.86" width="1231.41" height="41.02" style="fill:#ce2256;"/><rect x="5385.61" y="2519.24" width="1257.67" height="41.02" style="fill:#ce2256;"/><rect x="5385.61" y="2598.48" width="1212.55" height="41.02" style="fill:#ce2256;"/><rect x="5385.61" y="2677.72" width="1158.4" height="41.02" style="fill:#ce2256;"/><rect x="5385.61" y="2638.1" width="1186.29" height="41.02" style="fill:#ce2256;"/><rect x="5385.61" y="2717.34" width="1136.25" height="41.02" style="fill:#ce2256;"/><rect x="5385.61" y="2796.58" width="1096.05" height="41.02" style="fill:#ce2256;"/><rect x="5385.61" y="2756.96" width="1117.38" height="41.02" style="fill:#ce2256;"/><rect x="5385.61" y="2836.2" width="1081.28" height="41.02" style="fill:#ce2256;"/><rect x="5385.61" y="2915.45" width="1051.75" height="41.02" style="fill:#ce2256;"/><rect x="5385.61" y="2875.82" width="1068.98" height="41.02" style="fill:#ce2256;"/><rect x="5385.61" y="2955.07" width="1033.7" height="41.02" style="fill:#ce2256;"/><rect x="5385.61" y="3034.31" width="981.194" height="41.02" style="fill:#ce2256;"/><rect x="5385.61" y="2994.69" width="1001.7" height="41.02" style="fill:#ce2256;"/><rect x="5385.61" y="3073.93" width="974.631" height="41.02" style="fill:#ce2256;"/><rect x="5385.61" y="3153.17" width="981.194" height="41.02" style="fill:#ce2256;"/><rect x="5385.61" y="3113.55" width="982.015" height="41.02" style="fill:#ce2256;"/><rect x="5385.61" y="3192.79" width="974.631" height="41.02" style="fill:#ce2256;"/><rect x="5385.61" y="3272.03" width="981.194" height="41.02" style="fill:#ce2256;"/><rect x="5385.61" y="3232.41" width="967.248" height="41.02" style="fill:#ce2256;"/><rect x="5385.61" y="3311.65" width="967.248" height="41.02" style="fill:#ce2256;"/><rect x="5385.61" y="3390.89" width="981.194" height="41.02" style="fill:#ce2256;"/><rect x="5385.61" y="3351.27" width="974.631" height="41.02" style="fill:#ce2256;"/><rect x="5385.61" y="3430.52" width="1004.17" height="41.02" style="fill:#ce2256;"/><rect x="5385.61" y="3509.76" width="1062.41" height="41.02" style="fill:#ce2256;"/><rect x="5385.61" y="3470.14" width="1034.52" height="41.02" style="fill:#ce2256;"/><rect x="5385.61" y="3549.38" width="1110" height="41.02" style="fill:#ce2256;"/><rect x="5385.61" y="3628.62" width="1171.53" height="41.02" style="fill:#ce2256;"/><rect x="5385.61" y="3589" width="1137.89" height="41.02" style="fill:#ce2256;"/><rect x="5385.61" y="3668.24" width="1159.22" height="41.02" style="fill:#ce2256;"/><rect x="5385.61" y="3747.48" width="1182.19" height="41.02" style="fill:#ce2256;"/><rect x="5385.61" y="3707.86" width="1171.53" height="41.02" style="fill:#ce2256;"/><rect x="5385.61" y="3787.1" width="1201.06" height="41.02" style="fill:#ce2256;"/><rect x="5385.61" y="3866.35" width="1230.6" height="41.02" style="fill:#ce2256;"/><rect x="5385.61" y="3826.72" width="1245.36" height="41.02" style="fill:#ce2256;"/><rect x="5385.61" y="3905.97" width="1221.57" height="41.02" style="fill:#ce2256;"/><rect x="5385.61" y="3985.21" width="1265.05" height="41.02" style="fill:#ce2256;"/><rect x="5385.61" y="3945.59" width="1252.75" height="41.02" style="fill:#ce2256;"/><rect x="5385.61" y="4024.83" width="1275.72" height="41.02" style="fill:#ce2256;"/><rect x="5385.61" y="4104.07" width="1252.75" height="41.02" style="fill:#ce2256;"/><rect x="5385.61" y="4064.45" width="1284.74" height="41.02" style="fill:#ce2256;"/><rect x="5385.61" y="4143.69" width="1228.95" height="41.02" style="fill:#ce2256;"/><rect x="5385.61" y="4222.93" width="1155.94" height="41.02" style="fill:#ce2256;"/><rect x="5385.61" y="4183.31" width="1208.44" height="41.02" style="fill:#ce2256;"/><rect x="5385.61" y="4262.55" width="1117.38" height="41.02" style="fill:#ce2256;"/><rect x="5385.61" y="4341.8" width="855.674" height="41.02" style="fill:#ce2256;"/><rect x="5385.61" y="4302.17" width="1080.46" height="41.02" style="fill:#ce2256;"/></g><g><rect x="5165.9" y="577.815" width="33.482" height="41.02" style="fill:#14022e;"/><rect x="5065.45" y="657.057" width="133.93" height="41.02" style="fill:#14022e;"/><rect x="5132.42" y="617.436" width="66.965" height="41.02" style="fill:#14022e;"/><rect x="5010.69" y="696.677" width="188.691" height="41.02" style="fill:#14022e;"/><rect x="5010.69" y="775.919" width="188.691" height="41.02" style="fill:#14022e;"/><rect x="4985.47" y="736.298" width="213.918" height="41.02" style="fill:#14022e;"/><rect x="4985.47" y="815.54" width="213.918" height="41.02" style="fill:#14022e;"/><rect x="4882.71" y="894.782" width="316.673" height="41.02" style="fill:#14022e;"/><rect x="4931.53" y="855.161" width="267.86" height="41.02" style="fill:#14022e;"/><rect x="4853.18" y="934.403" width="346.207" height="41.02" style="fill:#14022e;"/><rect x="4771.55" y="1013.64" width="427.837" height="41.02" style="fill:#14022e;"/><rect x="4822" y="974.023" width="377.382" height="41.02" style="fill:#14022e;"/><rect x="4733.4" y="1053.27" width="465.985" height="41.02" style="fill:#14022e;"/><rect x="4663.67" y="1132.51" width="535.719" height="41.02" style="fill:#14022e;"/><rect x="4693.2" y="1092.89" width="506.185" height="41.02" style="fill:#14022e;"/><rect x="4639.05" y="1172.13" width="560.331" height="41.02" style="fill:#14022e;"/><rect x="4536.5" y="1251.37" width="662.881" height="41.02" style="fill:#14022e;"/><rect x="4589.01" y="1211.75" width="610.375" height="41.02" style="fill:#14022e;"/><rect x="4506.97" y="1290.99" width="692.415" height="41.02" style="fill:#14022e;"/><rect x="4351.91" y="1370.23" width="847.47" height="41.02" style="fill:#14022e;"/><rect x="4423.29" y="1330.61" width="776.095" height="41.02" style="fill:#14022e;"/><rect x="4261.67" y="1409.85" width="937.713" height="41.02" style="fill:#14022e;"/><rect x="4237.88" y="1489.09" width="961.505" height="41.02" style="fill:#14022e;"/><rect x="4222.29" y="1449.47" width="977.092" height="41.02" style="fill:#14022e;"/><rect x="4261.67" y="1528.71" width="937.713" height="41.02" style="fill:#14022e;"/><rect x="4261.67" y="1607.96" width="937.713" height="41.02" style="fill:#14022e;"/><rect x="4291.21" y="1568.34" width="908.179" height="41.02" style="fill:#14022e;"/><rect x="4222.29" y="1647.58" width="977.092" height="41.02" style="fill:#14022e;"/><rect x="4149.28" y="1726.82" width="1050.11" height="41.02" style="fill:#14022e;"/><rect x="4188.66" y="1687.2" width="1010.73" height="41.02" style="fill:#14022e;"/><rect x="4117.28" y="1766.44" width="1082.1" height="41.02" style="fill:#14022e;"/><rect x="4056.57" y="1845.68" width="1142.81" height="41.02" style="fill:#14022e;"/><rect x="4086.11" y="1806.06" width="1113.28" height="41.02" style="fill:#14022e;"/><rect x="4034.42" y="1885.3" width="1164.96" height="41.02" style="fill:#14022e;"/><rect x="3989.3" y="1964.54" width="1210.09" height="41.02" style="fill:#14022e;"/><rect x="4011.45" y="1924.92" width="1187.93" height="41.02" style="fill:#14022e;"/><rect x="3971.25" y="2004.16" width="1228.13" height="41.02" style="fill:#14022e;"/><rect x="3917.93" y="2083.41" width="1281.46" height="41.02" style="fill:#14022e;"/><rect x="3946.64" y="2043.79" width="1252.75" height="41.02" style="fill:#14022e;"/><rect x="3894.13" y="2123.03" width="1305.25" height="41.02" style="fill:#14022e;"/><rect x="3871.98" y="2202.27" width="1327.4" height="41.02" style="fill:#14022e;"/><rect x="3855.58" y="2162.65" width="1343.81" height="41.02" style="fill:#14022e;"/><rect x="3855.58" y="2241.89" width="1343.81" height="41.02" style="fill:#14022e;"/><rect x="3871.98" y="2321.13" width="1327.4" height="41.02" style="fill:#14022e;"/><rect x="3894.13" y="2281.51" width="1305.25" height="41.02" style="fill:#14022e;"/><rect x="3855.58" y="2360.75" width="1343.81" height="41.02" style="fill:#14022e;"/><rect x="3894.13" y="2439.99" width="1305.25" height="41.02" style="fill:#14022e;"/><rect x="3871.98" y="2400.37" width="1327.4" height="41.02" style="fill:#14022e;"/><rect x="3918.75" y="2479.62" width="1280.64" height="41.02" style="fill:#14022e;"/><rect x="3967.97" y="2558.86" width="1231.41" height="41.02" style="fill:#14022e;"/><rect x="3941.72" y="2519.24" width="1257.67" height="41.02" style="fill:#14022e;"/><rect x="3986.84" y="2598.48" width="1212.55" height="41.02" style="fill:#14022e;"/><rect x="4040.99" y="2677.72" width="1158.4" height="41.02" style="fill:#14022e;"/><rect x="4013.09" y="2638.1" width="1186.29" height="41.02" style="fill:#14022e;"/><rect x="4063.14" y="2717.34" width="1136.25" height="41.02" style="fill:#14022e;"/><rect x="4103.34" y="2796.58" width="1096.05" height="41.02" style="fill:#14022e;"/><rect x="4082.01" y="2756.96" width="1117.38" height="41.02" style="fill:#14022e;"/><rect x="4118.1" y="2836.2" width="1081.28" height="41.02" style="fill:#14022e;"/><rect x="4147.64" y="2915.45" width="1051.75" height="41.02" style="fill:#14022e;"/><rect x="4130.41" y="2875.82" width="1068.98" height="41.02" style="fill:#14022e;"/><rect x="4165.69" y="2955.07" width="1033.7" height="41.02" style="fill:#14022e;"/><rect x="4218.19" y="3034.31" width="981.194" height="41.02" style="fill:#14022e;"/><rect x="4197.68" y="2994.69" width="1001.7" height="41.02" style="fill:#14022e;"/><rect x="4224.75" y="3073.93" width="974.631" height="41.02" style="fill:#14022e;"/><rect x="4218.19" y="3153.17" width="981.194" height="41.02" style="fill:#14022e;"/><rect x="4217.37" y="3113.55" width="982.015" height="41.02" style="fill:#14022e;"/><rect x="4224.75" y="3192.79" width="974.631" height="41.02" style="fill:#14022e;"/><rect x="4218.19" y="3272.03" width="981.194" height="41.02" style="fill:#14022e;"/><rect x="4232.14" y="3232.41" width="967.248" height="41.02" style="fill:#14022e;"/><rect x="4232.14" y="3311.65" width="967.248" height="41.02" style="fill:#14022e;"/><rect x="4218.19" y="3390.89" width="981.194" height="41.02" style="fill:#14022e;"/><rect x="4224.75" y="3351.27" width="974.631" height="41.02" style="fill:#14022e;"/><rect x="4195.22" y="3430.52" width="1004.17" height="41.02" style="fill:#14022e;"/><rect x="4136.97" y="3509.76" width="1062.41" height="41.02" style="fill:#14022e;"/><rect x="4164.86" y="3470.14" width="1034.52" height="41.02" style="fill:#14022e;"/><rect x="4089.39" y="3549.38" width="1110" height="41.02" style="fill:#14022e;"/><rect x="4027.86" y="3628.62" width="1171.53" height="41.02" style="fill:#14022e;"/><rect x="4061.49" y="3589" width="1137.89" height="41.02" style="fill:#14022e;"/><rect x="4040.16" y="3668.24" width="1159.22" height="41.02" style="fill:#14022e;"/><rect x="4017.19" y="3747.48" width="1182.19" height="41.02" style="fill:#14022e;"/><rect x="4027.86" y="3707.86" width="1171.53" height="41.02" style="fill:#14022e;"/><rect x="3998.32" y="3787.1" width="1201.06" height="41.02" style="fill:#14022e;"/><rect x="3968.79" y="3866.35" width="1230.6" height="41.02" style="fill:#14022e;"/><rect x="3954.02" y="3826.72" width="1245.36" height="41.02" style="fill:#14022e;"/><rect x="3977.81" y="3905.97" width="1221.57" height="41.02" style="fill:#14022e;"/><rect x="3934.33" y="3985.21" width="1265.05" height="41.02" style="fill:#14022e;"/><rect x="3946.64" y="3945.59" width="1252.75" height="41.02" style="fill:#14022e;"/><rect x="3923.67" y="4024.83" width="1275.72" height="41.02" style="fill:#14022e;"/><rect x="3946.64" y="4104.07" width="1252.75" height="41.02" style="fill:#14022e;"/><rect x="3914.64" y="4064.45" width="1284.74" height="41.02" style="fill:#14022e;"/><rect x="3970.43" y="4143.69" width="1228.95" height="41.02" style="fill:#14022e;"/><rect x="4043.45" y="4222.93" width="1155.94" height="41.02" style="fill:#14022e;"/><rect x="3990.94" y="4183.31" width="1208.44" height="41.02" style="fill:#14022e;"/><rect x="4082.01" y="4262.55" width="1117.38" height="41.02" style="fill:#14022e;"/><rect x="4343.71" y="4341.8" width="855.674" height="41.02" style="fill:#14022e;"/><rect x="4118.92" y="4302.17" width="1080.46" height="41.02" style="fill:#14022e;"/></g></g></g></svg>