<?xml version="1.0" encoding="UTF-8" standalone="no"?><!DOCTYPE svg PUBLIC "-//W3C//DTD SVG 1.1//EN" "http://www.w3.org/Graphics/SVG/1.1/DTD/svg11.dtd"><svg width="100%" height="100%" viewBox="0 0 2084 2084" version="1.1" xmlns="http://www.w3.org/2000/svg" xmlns:xlink="http://www.w3.org/1999/xlink" xml:space="preserve" xmlns:serif="http://www.serif.com/" style="fill-rule:evenodd;clip-rule:evenodd;stroke-linejoin:round;stroke-miterlimit:2;"><circle cx="1041.67" cy="1041.67" r="708.75" style="fill:#9fcaaa;"/><path d="M1723.75,1609.17c-6.667,-0.834 -12.917,-0.834 -20.833,-0.834l-1163.33,0l0,-1163.33c0,-5.833 0,-12.5 -1.25,-19.583c-2.916,-17.917 -14.583,-30.417 -32.083,-35.417c-11.25,-2.917 -27.917,-3.333 -43.75,12.5c-12.083,12.083 -12.083,26.667 -12.083,37.5l-0,14.583l-62.084,0c-13.333,0 -24.583,10.834 -24.583,24.584c0,13.333 10.833,24.583 24.583,24.583l62.084,0l-0,150.833l-62.084,0c-13.333,0 -24.583,10.834 -24.583,24.584c0,13.75 10.833,24.583 24.583,24.583l62.084,0l-0,172.917l-62.084,-0c-13.333,-0 -24.583,10.833 -24.583,24.583c0,13.75 10.833,24.583 24.583,24.583l62.084,0l-0,173.334l-62.084,-0c-13.333,-0 -24.583,10.833 -24.583,24.583c0,13.333 10.833,24.583 24.583,24.583l62.084,0l-0,172.917l-62.084,0c-13.333,0 -24.583,10.833 -24.583,24.583c0,13.75 10.833,24.584 24.583,24.584l62.084,-0l-0,173.333l-62.084,-0c-13.333,-0 -24.583,10.833 -24.583,24.583c0,13.75 10.833,24.584 24.583,24.584l62.084,-0l-0,54.583c-0,4.167 -0,8.333 0.416,12.083c2.084,22.084 18.75,37.5 40.834,39.167c4.166,0.417 7.916,0.417 13.75,0.417l56.666,-0l0,50.833c0,13.333 10.834,24.583 24.584,24.583c13.333,0 24.583,-10.833 24.583,-24.583l0,-52.5l173.333,-0l0,52.5c0,13.333 10.834,24.583 24.584,24.583c13.75,0 24.583,-10.833 24.583,-24.583l0,-52.5l173.333,-0l0,52.5c0,13.333 10.834,24.583 24.584,24.583c13.333,0 24.583,-10.833 24.583,-24.583l0,-52.5l173.333,-0l0,52.5c0,13.333 10.834,24.583 24.584,24.583c13.75,0 24.583,-10.833 24.583,-24.583l0,-52.5l173.333,-0l0,52.5c0,13.333 10.834,24.583 24.584,24.583c13.333,0 24.583,-10.833 24.583,-24.583l-0,-52.5l167.917,-0l-0,52.5c-0,13.333 10.833,24.583 24.583,24.583c13.75,0 24.583,-10.833 24.583,-24.583l0,-52.917l4.584,0c22.916,-1.666 40.416,-19.166 41.666,-42.083c-2.083,-22.5 -18.333,-42.5 -40.833,-45.833Z" style="fill-rule:nonzero;"/></svg>