<?xml version="1.0" encoding="UTF-8" standalone="no"?><!DOCTYPE svg PUBLIC "-//W3C//DTD SVG 1.1//EN" "http://www.w3.org/Graphics/SVG/1.1/DTD/svg11.dtd"><svg width="100%" height="100%" viewBox="0 0 2084 2084" version="1.1" xmlns="http://www.w3.org/2000/svg" xmlns:xlink="http://www.w3.org/1999/xlink" xml:space="preserve" xmlns:serif="http://www.serif.com/" style="fill-rule:evenodd;clip-rule:evenodd;stroke-linejoin:round;stroke-miterlimit:2;"><path d="M1750.42,1058.75c-0,391.25 -317.084,708.75 -708.75,708.75c-391.25,0 -708.75,-317.5 -708.75,-708.75c-0,-391.25 317.5,-708.75 708.75,-708.75c391.25,0 708.75,317.5 708.75,708.75" style="fill:#b291c2;fill-rule:nonzero;"/><path d="M1163.33,822.083l-347.916,0l117.916,-117.916c13.334,-13.334 20.834,-31.25 20.834,-50.417c-0,-19.167 -7.5,-37.083 -20.834,-50.417c-27.083,-27.083 -73.75,-27.083 -100.833,0l-241.25,241.25c-13.333,13.334 -20.833,31.25 -20.833,50.417c-0,19.167 7.5,37.083 20.833,50.417l252.5,252.5c13.333,13.333 31.25,20.833 50.417,20.833c19.166,0 37.083,-7.5 50.416,-20.833c13.334,-13.334 20.834,-31.25 20.834,-50.417c-0,-19.167 -7.5,-37.083 -20.834,-50.417l-132.916,-132.916l352.083,-0c93.75,-0 170,76.25 170,170c-0,93.75 -76.25,170 -170,170l-247.083,-0c-39.167,-0 -71.25,32.083 -71.25,71.25c-0,39.166 32.083,71.25 71.25,71.25l246.666,-0c172.5,-0 312.5,-140 312.5,-312.5c0,-171.667 -140,-312.084 -312.5,-312.084" style="fill:#fff;fill-rule:nonzero;"/><path d="M1163.33,1477.08l-246.666,0c-55.417,0 -100.834,-45.416 -100.834,-100.833c0,-55.417 45.417,-100.833 100.834,-100.833l246.666,-0c77.5,-0 140.417,-62.917 140.417,-140.417c0,-77.5 -62.917,-140.417 -140.417,-140.417l-280.833,0l82.5,82.5c19.167,19.167 29.583,44.167 29.583,71.25c0,27.084 -10.416,52.084 -29.583,71.25c-19.167,19.167 -44.167,29.584 -71.25,29.584c-27.083,-0 -52.083,-10.417 -71.25,-29.584l-252.5,-252.916c-19.167,-19.167 -29.583,-44.167 -29.583,-71.25c-0,-27.084 10.416,-52.084 29.583,-71.25l241.25,-241.25c18.333,-18.334 44.167,-28.75 71.25,-28.75c27.083,-0 52.917,10.416 71.25,28.75c19.167,19.166 29.583,44.166 29.583,71.25c0,27.083 -10.416,52.083 -29.583,71.25l-67.083,67.083l276.666,-0c188.75,-0 342.084,153.333 342.084,342.083c-0,189.167 -153.334,342.5 -342.084,342.5Zm-246.666,-142.5c-22.917,0 -41.667,18.75 -41.667,41.667c0,22.917 18.75,41.667 41.667,41.667l246.666,-0c156.25,-0 282.917,-127.084 282.917,-282.917c0,-156.25 -127.083,-282.917 -282.917,-282.917l-419.583,0l168.333,-168.333c7.917,-7.917 12.084,-18.333 12.084,-29.583c-0,-11.25 -4.167,-21.667 -12.084,-29.584c-7.5,-7.5 -17.916,-11.666 -29.583,-11.666c-11.25,-0 -22.083,4.166 -29.583,11.666l-241.25,241.25c-7.917,7.917 -12.084,18.334 -12.084,29.584c0,11.25 4.167,21.666 12.084,29.583l252.5,252.5c7.916,7.917 18.333,12.083 29.583,12.083c11.25,0 21.667,-4.166 29.583,-12.083c7.917,-7.917 12.084,-18.333 12.084,-29.583c-0,-11.25 -4.167,-21.667 -12.084,-29.584l-183.333,-183.333l423.333,-0c110,-0 199.584,89.583 199.584,199.583c-0,110 -89.584,199.584 -199.584,199.584l-246.666,-0l-0,0.416Z" style="fill-rule:nonzero;"/></svg>