<?xml version="1.0" encoding="UTF-8" standalone="no"?><!DOCTYPE svg PUBLIC "-//W3C//DTD SVG 1.1//EN" "http://www.w3.org/Graphics/SVG/1.1/DTD/svg11.dtd"><svg width="100%" height="100%" viewBox="0 0 2084 2084" version="1.1" xmlns="http://www.w3.org/2000/svg" xmlns:xlink="http://www.w3.org/1999/xlink" xml:space="preserve" xmlns:serif="http://www.serif.com/" style="fill-rule:evenodd;clip-rule:evenodd;stroke-linejoin:round;stroke-miterlimit:2;"><path d="M1750.42,1058.75c-0,391.25 -317.084,708.75 -708.75,708.75c-391.25,0 -708.75,-317.5 -708.75,-708.75c-0,-391.25 317.5,-708.75 708.75,-708.75c391.25,0 708.75,317.5 708.75,708.75" style="fill:#36bcee;fill-rule:nonzero;"/><path d="M1440.42,535.833l-221.667,-48.75l12.917,-57.916c9.166,-42.084 -17.5,-84.167 -59.584,-93.334l-202.916,-44.583c-20.417,-4.583 -41.25,-0.833 -59.167,10.417c-17.5,11.25 -30,28.75 -34.167,49.166l-12.5,57.5l-221.666,-48.75c-33.334,-7.5 -66.667,13.75 -73.75,47.084c-7.5,33.333 13.75,66.666 47.083,73.75l798.75,176.25c4.583,0.833 9.167,1.666 13.333,1.666c28.334,0 54.167,-19.583 60.417,-48.75c7.5,-33.333 -13.75,-66.666 -47.083,-73.75Zm-503.75,-172.083c0.833,-4.167 3.333,-7.917 7.083,-10.417c3.75,-2.5 7.917,-3.333 12.083,-2.083l202.917,44.583c8.75,2.084 14.167,10.834 12.5,19.584l-12.917,57.916l-234.583,-51.666l12.917,-57.917Z" style="fill:#1d1d1b;fill-rule:nonzero;"/><path d="M1399.58,692.5l-717.916,0c-49.167,0 -87.5,42.083 -82.917,90.833l82.917,884.584c4.166,42.916 40,75.416 82.916,75.416l552.5,0c42.917,0 78.75,-32.5 82.917,-75.416l82.5,-884.584c4.583,-48.75 -33.75,-90.833 -82.917,-90.833Z" style="fill:#1d1d1b;fill-rule:nonzero;"/><g><path d="M1323.33,1316.25l-75.833,-137.5c-5.417,-10 -17.917,-13.333 -27.917,-7.917c-10,5.417 -13.333,17.917 -7.916,27.917l75.833,137.5c6.25,10.833 5.833,24.167 -0.417,35c-6.25,10.833 -17.916,17.5 -30.416,17.5l-128.334,0l38.75,-38.75c7.917,-7.917 7.917,-20.833 0,-28.75c-7.916,-7.917 -20.833,-7.917 -28.75,0l-74.583,74.583c-0.417,0.417 -0.833,0.834 -0.833,1.25c-0.417,0.417 -0.417,0.834 -0.834,1.25c-0.416,0.417 -0.416,0.834 -0.833,1.25c-0.417,0.417 -0.417,0.834 -0.833,1.25c-0,0.417 -0.417,0.417 -0.417,0.834l0,0.416c0,0.417 -0.417,0.834 -0.417,1.667c0,0.417 -0.416,0.833 -0.416,1.25c-0,0.417 -0,0.833 -0.417,1.667l0,6.666c0,0.417 0,0.834 0.417,1.667c-0,0.417 0.416,0.833 0.416,1.25c0,0.417 0.417,0.833 0.417,1.667l0,0.416c0,0.417 0.417,0.417 0.417,0.834c0.416,0.416 0.416,0.833 0.833,1.25c0.417,0.416 0.417,0.833 0.833,1.25c0.417,0.416 0.417,0.833 0.834,1.25c0.416,0.416 0.833,0.833 0.833,1.25l74.583,74.583c4.167,4.167 9.167,5.833 14.584,5.833c5.416,0 10.416,-2.083 14.583,-5.833c7.917,-7.917 7.917,-20.833 -0,-28.75l-38.75,-38.75l128.333,-0c27.084,-0 51.667,-14.167 65.417,-37.5c13.333,-25.417 13.75,-53.75 0.833,-77.5Z" style="fill:#fff;fill-rule:nonzero;"/><path d="M822.917,1428.75l157.083,0c11.25,0 20.417,-9.167 20.417,-20.417c-0,-11.25 -9.167,-20.416 -20.417,-20.416l-157.083,-0c-12.5,-0 -23.75,-6.667 -30.417,-17.5c-6.25,-10.834 -6.667,-23.75 -0.417,-35l61.667,-112.5l15.417,52.916c3.333,10.834 14.583,17.084 25.416,13.75c10.834,-3.333 17.084,-14.583 13.75,-25.416l-29.166,-100c-0,-0.417 -0.417,-0.417 -0.417,-0.834c0,-0.416 -0.417,-0.833 -0.417,-1.25c0,-0.416 -0.416,-0.833 -0.833,-1.25c-0.417,-0.416 -0.417,-0.833 -0.833,-1.25c-0.417,-0.416 -0.417,-0.833 -0.834,-1.25c0,-0.416 -0.416,-0.416 -0.416,-0.833l-2.5,-2.5c-0.417,-0.417 -0.834,-0.833 -1.25,-0.833c-0.417,-0.417 -0.834,-0.417 -1.25,-0.834c-0.417,-0.416 -0.834,-0.416 -1.25,-0.833c-0.417,-0.417 -0.834,-0.417 -1.25,-0.833c-0.417,-0 -0.834,-0.417 -1.25,-0.417c-0.417,0 -0.834,-0.417 -1.25,-0.417c-0.417,0 -0.834,-0.416 -1.25,-0.416c-0.417,-0 -1.25,-0.417 -1.667,-0.417l-5.833,-0c-0.417,-0 -0.834,-0 -1.667,0.417l-0.833,-0l-100,29.166c-5.417,1.667 -9.584,5 -12.084,9.584c-2.5,4.583 -3.333,10 -1.666,15.416c3.333,10.834 14.583,17.084 25.416,13.75l52.917,-15.416l-61.667,112.5c-12.916,23.75 -12.5,52.083 1.25,75.416c12.917,24.167 37.084,37.917 64.584,37.917Z" style="fill:#fff;fill-rule:nonzero;"/><path d="M975,937.083l-80.417,135c-5.833,9.584 -2.5,22.084 7.084,27.917c9.583,5.833 22.083,2.5 27.916,-7.083l80.417,-135c6.25,-10.834 17.917,-17.084 30.417,-17.084c12.5,0 23.75,6.667 30.416,17.5l65,110.417l-53.333,-13.75c-10.833,-2.917 -22.083,3.75 -25,14.583c-2.917,10.834 3.75,22.084 14.583,25l100.834,26.25l0.833,0c0.417,0 0.833,0 1.667,0.417l5.833,0c0.417,0 1.25,-0.417 1.667,-0.417c0.416,0 0.833,-0.416 1.25,-0.416c0.416,-0 0.833,-0.417 1.25,-0.417c0.416,-0 0.833,-0.417 1.25,-0.417c0.416,-0.416 0.833,-0.416 1.25,-0.833c0.416,-0.417 0.833,-0.417 1.25,-0.833c0.416,-0.417 0.833,-0.417 1.25,-0.834c0.416,-0.416 0.833,-0.833 1.25,-0.833l2.5,-2.5c-0,-0.417 0.416,-0.417 0.416,-0.833c0.417,-0.417 0.417,-0.834 0.834,-1.25c0.416,-0.417 0.416,-0.834 0.833,-1.25c0.417,-0.417 0.417,-0.834 0.833,-1.25c0,-0.417 0.417,-0.834 0.417,-1.25c0,-0.417 0.417,-0.417 0.417,-0.834l26.25,-100.833c1.25,-5.417 0.416,-10.833 -2.084,-15.417c-2.5,-4.583 -7.083,-7.916 -12.5,-9.583c-10.833,-2.917 -22.083,3.75 -25,14.583l-13.75,53.334l-64.583,-111.667c-13.75,-23.333 -38.333,-37.5 -65.417,-37.5c-27.5,-0.417 -52.083,13.75 -65.833,37.083Z" style="fill:#fff;fill-rule:nonzero;"/></g></svg>